<?xml version="1.0" encoding="UTF-8" standalone="no"?>
<!-- Generator: visioncortex VTracer 0.6.4 -->

<svg
   version="1.1"
   width="761.77197"
   height="724.36731"
   id="svg18"
   sodipodi:docname="c6720684-4fcc-4a12-9dc9-12b5ed8d54f7.svg"
   inkscape:version="1.4.3 (0d15f75042, 2025-12-25)"
   xmlns:inkscape="http://www.inkscape.org/namespaces/inkscape"
   xmlns:sodipodi="http://sodipodi.sourceforge.net/DTD/sodipodi-0.dtd"
   xmlns="http://www.w3.org/2000/svg"
   xmlns:svg="http://www.w3.org/2000/svg">
  <defs
     id="defs18" />
  <sodipodi:namedview
     id="namedview18"
     pagecolor="#ffffff"
     bordercolor="#000000"
     borderopacity="0.25"
     inkscape:showpageshadow="2"
     inkscape:pageopacity="0.0"
     inkscape:pagecheckerboard="0"
     inkscape:deskcolor="#d1d1d1"
     inkscape:zoom="1.0864401"
     inkscape:cx="335.03918"
     inkscape:cy="425.24203"
     inkscape:window-width="1716"
     inkscape:window-height="1389"
     inkscape:window-x="1920"
     inkscape:window-y="0"
     inkscape:window-maximized="1"
     inkscape:current-layer="svg18" />
  <path
     d="m 156.02404,0.32226682 c 2.00383,-0.004 4.00799,-0.007962 6.0119,-0.011992 5.49058,-0.01066 10.98123,-0.0133219 16.47185,-0.0141192 5.92859,-0.00261 11.8571,-0.011992 17.78572,-0.021445 12.95725,-0.0181125 25.91451,-0.026109 38.87175,-0.031969 8.09794,-0.004 16.19577,-0.00932 24.29367,-0.0153234 22.44081,-0.0162456 44.88161,-0.0299657 67.32242,-0.034494 1.43531,-2.9245e-4 2.87064,-5.8597e-4 4.34958,-8.7848e-4 1.4387,-2.9355e-4 2.87742,-5.8595e-4 4.35974,-8.7925e-4 2.91506,-5.9954e-4 5.8303,-0.00115 8.74546,-0.00136 1.44602,-3.061e-4 2.89204,-5.9965e-4 4.38167,-9.057e-4 23.41292,-0.00536 46.82545,-0.0284992 70.23815,-0.0595451 24.06392,-0.03170697 48.12776,-0.0482153 72.19164,-0.04981905 13.50021,-0.001259 27.00042,-0.009328 40.50056,-0.03303803 11.49944,-0.020649 22.99875,-0.02730469 34.49818,-0.01638292 5.85962,0.0053454 11.71892,0.0039824 17.57847,-0.01465321 5.3799,-0.01717948 10.7595,-0.0151878365 16.13929,7.8496e-4 1.93096,0.0026204 3.86175,-0.0013638 5.7925,-0.01332221 26.83703,-0.15255411 52.95593,5.66014957 76.95437,17.82272077 1.23112,0.616418 2.46221,1.232846 3.73061,1.867925 8.37362,4.366382 15.70896,9.351487 22.90958,15.448202 1.06797,0.889427 2.13597,1.778865 3.23642,2.695243 24.05174,20.755036 38.48391,46.638678 46.04792,77.225304 0.22657,0.8962 0.45313,1.79243 0.68654,2.71566 2.2579,9.89315 2.3576,19.51072 2.33371,29.62483 0.005,1.90451 0.0102,3.80902 0.0184,5.71353 0.016,5.20345 0.0158,10.40704 0.0131,15.61064 -5.9e-4,5.62442 0.0136,11.24871 0.0265,16.87302 0.0221,11.01016 0.0292,22.02024 0.0307,33.03034 10e-4,8.9584 0.006,17.91653 0.0149,26.87484 0.0234,25.43745 0.0356,50.87495 0.0334,76.31241 -1.5e-4,2.05512 -1.5e-4,2.05512 -3e-4,4.15177 -1.1e-4,1.37173 -2.1e-4,2.74345 -3.5e-4,4.15676 -10e-4,22.20394 0.0242,44.40795 0.062,66.61175 0.0379,22.83727 0.0566,45.6745 0.0542,68.51175 -8.7e-4,12.80578 0.006,25.6114 0.0345,38.41704 0.0242,10.90895 0.0296,21.81766 0.0116,32.72656 -0.008,5.55527 -0.009,11.11032 0.0137,16.66565 0.17202,43.77603 -5.30494,84.58796 -35.30314,118.78352 -0.80707,0.95123 -1.61409,1.90245 -2.44554,2.88252 -1.83338,2.16049 -3.68733,4.30343 -5.5465,6.44155 -5.09289,-4.7303 -8.53798,-9.28709 -11.98816,-15.40135 -1.27753,-2.22792 -1.27753,-2.22792 -2.58081,-4.50075 -22.22141,-42.03515 -26.72392,-95.05537 -31.24499,-141.71853 -0.53703,-5.45337 -1.29457,-10.83405 -2.16448,-16.24428 -1.23833,-7.80731 -1.94554,-15.55252 -2.47151,-23.43506 -2.77247,-37.5749 -7.55617,-75.05519 -14.16982,-112.1402 -3.01386,-17.09457 -5.174,-34.3083 -7.30928,-51.53072 5.37967,2.9317 9.36364,6.37925 13.65327,10.73934 1.1606,1.16926 2.32132,2.33853 3.5172,3.54335 2.80975,3.03345 2.80975,3.03345 4.14174,5.69747 1.23697,-24.69449 -3.88694,-47.62557 -12.37637,-70.68301 -0.79733,-2.17737 -1.54249,-4.37378 -2.2757,-6.57358 5.61646,1.97986 10.15623,4.81186 15.0684,8.15856 1.42331,0.965 2.84678,1.93 4.31336,2.92417 1.07654,0.73836 2.15304,1.47664 3.26239,2.23735 -3.33641,-15.14427 -7.10136,-29.08354 -14.17871,-42.92609 -1.80544,-3.69418 -1.80544,-3.69418 -1.80544,-6.35817 0.89967,0.28847 1.79942,0.57687 2.72641,0.87405 1.1883,0.37082 2.37637,0.74174 3.60062,1.12385 1.17454,0.37096 2.34889,0.74183 3.55894,1.12394 3.70409,1.09314 3.70409,1.09314 8.76218,0.8741 -17.08684,-30.77023 -41.89756,-53.17116 -71.42905,-71.67884 -1.14369,-0.71853 -2.28734,-1.43738 -3.46558,-2.1777 -8.05728,-4.94334 -16.32254,-8.99703 -25.00601,-12.72411 0,-0.87906 0,-1.75815 0,-2.66394 6.15372,-0.43952 12.30767,-0.87918 18.64791,-1.33204 -13.75295,-9.36389 -27.46625,-17.62669 -42.76275,-24.2182 -2.20553,-0.95194 -4.39383,-1.94382 -6.57869,-2.94237 -19.596,-8.35663 -41.65292,-11.842106 -62.54717,-15.463739 0.43945,-0.879134 0.87909,-1.758256 1.33194,-2.664023 2.75249,-0.551527 2.75249,-0.551527 6.0773,-0.832504 1.65094,-0.149383 1.65094,-0.149383 3.33523,-0.301784 1.27481,-0.0978 1.27481,-0.0978 2.57548,-0.197724 0,-0.879124 0,-1.758248 0,-2.664007 -0.76067,-0.0499 -1.52136,-0.09953 -2.30498,-0.150899 -6.42486,-0.520948 -12.43409,-1.468105 -18.67394,-3.095888 -41.98077,-9.969801 -89.92921,-7.168122 -130.86998,5.910794 -0.84661,0.263569 -1.69335,0.527127 -2.56584,0.79869 -29.88818,9.414764 -57.4303,24.128934 -82.07924,43.407384 -1.07824,0.7968 -2.15652,1.59334 -3.26753,2.41427 -0.80346,0.6319 -1.60721,1.26381 -2.43509,1.91469 -4.10323,1.06273 -6.74692,-0.68644 -10.56301,-2.17896 -4.76615,-1.70433 -9.61697,-2.60384 -14.58909,-3.49754 -1.10486,-0.20203 -2.20964,-0.40399 -3.34796,-0.61206 -3.61541,-0.64565 -7.23444,-1.26353 -10.85663,-1.86996 -1.24696,-0.20891 -2.49367,-0.41803 -3.77839,-0.63327 -19.29637,-3.15213 -38.27866,-4.70115 -57.82705,-4.69476 -1.14083,-0.006 -2.28162,-0.0131 -3.45718,-0.0201 -19.30831,-0.0404 -39.07863,1.88519 -56.31677,11.34202 -0.875695,0.46114 -1.751391,0.92225 -2.653615,1.39728 -22.273846,12.03655 -36.636029,31.36133 -44.913704,55.07252 -0.346842,1.22766 -0.693687,2.45542 -1.051042,3.72031 -0.236204,0.82241 -0.472402,1.64483 -0.715758,2.4921 -2.294142,8.90591 -2.299181,17.57537 -2.198011,26.72893 8.59e-4,1.51195 0.0017,3.02369 0.0025,4.58135 -0.307679,7.30369 -0.307679,7.30369 1.579169,14.15006 1.331558,-1.18232 1.331558,-1.18232 2.690031,-2.38841 10.307912,-8.83738 21.786327,-17.5166 35.938239,-17.59186 3.994875,1.9893 7.247784,4.7181 10.656084,7.57586 0.986444,0.79063 1.972886,1.58138 2.989213,2.39602 3.018654,2.42566 6.008634,4.88377 8.998854,7.34431 2.51691,2.02659 5.04184,4.04301 7.56809,6.058 1.62436,1.29713 3.24602,2.59776 4.86496,3.90185 6.21184,4.99842 12.52113,9.85822 18.86925,14.68233 8.14288,6.18834 16.17407,12.4959 24.14104,18.9089 9.04774,7.27329 18.26931,14.31695 27.49826,21.35835 3.27173,2.49939 6.53597,5.00844 9.79956,7.51853 1.04286,0.79312 2.08573,1.58617 3.16013,2.40326 0.97971,0.75575 1.9596,1.5114 2.96931,2.29014 0.87325,0.66846 1.74675,1.33704 2.64636,2.02589 6.16253,5.45179 8.56693,11.52614 9.30862,19.72847 0.13533,3.23254 0.16034,6.44783 0.14753,9.68307 0.0215,1.08694 0.0429,2.17368 0.065,3.29366 0.006,8.54863 -1.45071,14.60552 -6.64702,21.60871 -19.21651,19.1777 -43.81618,33.22583 -66.38421,48.12756 -2.46078,1.62508 -4.91696,3.25682 -7.37053,4.89266 -11.01901,0.45918 -19.35876,-7.75729 -27.08257,-14.83427 -2.22171,-2.48189 -2.22171,-2.48189 -2.22171,-5.14596 -0.87917,0 -1.75822,0 -2.66407,0 -4.5179,17.95047 -6.030175,40.15224 3.25202,56.70417 9.92774,15.433 24.47743,23.46356 41.8698,28.29478 7.83969,1.64655 15.49658,1.9545 23.47682,1.99799 1.12078,0.008 2.24187,0.0145 3.39673,0.0223 15.49546,-0.17409 30.19832,-3.42602 45.05502,-7.5983 1.52314,-0.41609 3.04627,-0.83216 4.6155,-1.26081 6.11096,-1.6715 12.21497,-3.35601 18.28359,-5.17553 38.11365,-11.08519 83.5252,-16.32716 119.79246,2.93979 24.82921,15.32432 39.10567,37.3042 45.85026,65.41943 6.97941,34.84973 -0.66052,69.16484 -11.218,102.41378 -0.72539,2.49644 -1.44737,4.99384 -2.16467,7.49266 -1.57147,5.23538 -3.64028,10.13926 -5.82735,15.1515 -0.6308,1.79161 -1.2397,3.59101 -1.83154,5.39572 -0.34782,1.05539 -0.69551,2.11085 -1.05363,3.19828 -0.54988,1.68007 -0.54988,1.68007 -1.111,3.39419 -1.55063,4.71854 -3.1057,9.43579 -4.66194,14.15255 -0.39316,1.20188 -0.78639,2.40384 -1.19162,3.64215 -0.58457,1.76689 -0.58457,1.76689 -1.18102,3.56944 -0.34439,1.04678 -0.68852,2.09351 -1.04335,3.17199 -1.57132,4.33244 -3.41568,8.52972 -5.24223,12.76002 -30.9514,0.12502 -61.90296,0.21869 -92.85478,0.27609 -14.37418,0.0271 -28.74823,0.0646 -43.12231,0.12591 -12.54078,0.0532 -25.08162,0.0869 -37.62252,0.099 -6.62922,0.006 -13.25805,0.0228 -19.88706,0.062 -48.78878,0.27666 -89.188028,-3.18975 -128.859567,-35.19553 -1.038759,-0.81729 -2.077572,-1.63468 -3.147861,-2.47669 C 21.985101,663.95709 5.0404818,627.51384 0.80771887,592.66005 0.19050713,585.31202 0.3299983,577.93219 0.33484716,570.56335 c -0.003446,-1.90145 -0.007446,-3.80297 -0.011992,-5.70441 -0.0107011,-5.20717 -0.0131326,-10.4145 -0.0141191,-15.62168 -0.002506,-5.62349 -0.0125362,-11.24684 -0.021486,-16.87017 -0.018061,-12.28845 -0.0261086,-24.57675 -0.0319796,-36.86519 -0.00365,-7.67927 -0.00932,-15.35854 -0.0153234,-23.03781 -0.016235,-21.27988 -0.0299554,-42.55974 -0.0344629,-63.83964 -2.9246e-4,-1.36098 -5.8495e-4,-2.72194 -8.8575e-4,-4.12399 -2.9137e-4,-1.36413 -5.8178e-4,-2.72823 -8.8148e-4,-4.13361 -5.9113e-4,-2.76405 -0.00115,-5.52803 -0.001776,-8.29196 -2.9454e-4,-1.37102 -5.9013e-4,-2.74203 -8.941e-4,-4.15466 C 0.19583693,365.71601 0.17258718,343.5117 0.141562,321.30752 0.10993251,298.48684 0.09336126,275.66628 0.09180997,252.84569 0.09055191,240.04234 0.08300522,227.23913 0.05875093,214.43588 0.03817552,203.53165 0.03144631,192.62754 0.04242061,181.72321 0.04755649,176.16604 0.04650835,170.60918 0.02769385,165.05201 0.01065861,159.95175 0.01247201,154.85173 0.0285309,149.75134 0.03230421,147.05967 0.01666579,144.36838 0,141.67705 0.19276482,105.58988 14.891454,73.33343 39.150297,47.129622 c 0.985594,-1.09375 1.971169,-2.187518 2.986622,-3.314407 11.519022,-12.215242 25.973215,-21.278843 40.969704,-28.653824 1.3908,-0.685107 2.781604,-1.370202 4.21456,-2.076056 C 109.27787,2.9650847 132.06707,0.30571531 156.02406,0.32221863 Z"
     fill="#fa7a1c"
     id="path2"
     style="stroke-width:1.33183" />
  <path
     d="m 498.69351,87.089972 c 0,0.879113 0,1.758238 0,2.664008 -3.95591,0.879131 -7.91201,1.758254 -11.988,2.664019 0.87077,0.173856 1.7415,0.34771 2.63866,0.526824 39.51203,7.934387 76.72905,18.626147 109.25017,43.429497 0,0.43964 0,0.87914 0,1.33204 -6.59351,0 -13.18683,0 -19.9801,0 0,0.8791 0,1.7583 0,2.66394 1.30073,0.14687 1.30073,0.14687 2.6275,0.29661 5.61119,1.4407 10.24584,4.11114 15.27135,6.94627 1.58793,0.8909 1.58793,0.8909 3.20815,1.79986 9.91103,5.66069 19.11998,11.99937 28.1773,18.92957 1.238,0.93908 2.47596,1.8784 3.75151,2.84603 19.59575,15.43143 38.02752,33.98222 48.19695,57.09437 -7.59242,-0.66601 -13.04423,-2.19215 -19.98023,-5.32796 0.7075,1.38723 1.41481,2.77456 2.14367,4.20406 7.02822,14.131 13.84049,28.98794 13.84049,45.08018 -5.27357,-1.9088 -9.70661,-4.4374 -14.40244,-7.49261 -1.29979,-0.84129 -2.5995,-1.68258 -3.93882,-2.54949 -0.98036,-0.64211 -1.96072,-1.28433 -2.97101,-1.94598 0.41907,1.00284 0.83792,2.00552 1.26962,3.03873 9.65253,23.95674 14.10019,48.34255 13.38261,74.21787 -0.85173,-0.85172 -1.70336,-1.70336 -2.58083,-2.58083 -0.59754,-0.59572 -1.19501,-1.19156 -1.8107,-1.80544 -1.76881,-1.77282 -3.52923,-3.5541 -5.2863,-5.3384 -1.06461,-1.07665 -2.12919,-2.15322 -3.22608,-3.26245 -1.02163,-1.03714 -2.04329,-2.07418 -3.09579,-3.14273 -2.46342,-2.58799 -2.46342,-2.58799 -5.3125,-3.85033 1.80651,14.97105 3.71007,29.90143 6.44673,44.73682 4.55712,24.92208 7.73332,50.01141 10.86939,75.14407 0.11246,0.89778 0.22485,1.79568 0.34077,2.72068 1.93706,15.49676 3.74131,30.91678 4.44291,46.52163 0.40386,7.78327 1.60754,15.346 2.91537,23.02219 1.48552,8.90687 2.45716,17.82248 3.37334,26.80365 7.20763,67.96421 7.20763,67.96421 32.46768,130.70349 6.33989,10.98211 6.33989,10.98211 8.40831,15.31811 -11.22337,10.01124 -22.77709,18.1054 -35.96428,25.30825 -1.36506,0.75539 -2.73005,1.51084 -4.13648,2.28937 -23.1453,11.73737 -47.82692,13.33266 -73.31262,13.01302 -2.97627,-0.0116 -5.95254,-0.022 -8.92888,-0.0282 -7.73206,-0.0249 -15.46355,-0.0897 -23.19534,-0.16458 -7.93036,-0.0687 -15.861,-0.0982 -23.7916,-0.13209 -15.48579,-0.0706 -30.97101,-0.18416 -46.45639,-0.32524 1.27495,-1.9222 2.55116,-3.84352 3.82797,-5.76446 0.71053,-1.07001 1.42105,-2.14004 2.15317,-3.2425 2.26091,-3.35165 4.64844,-6.58517 7.08925,-9.80768 15.19865,-20.81487 26.47403,-43.98474 36.21396,-67.76598 0.88344,-2.06308 0.88344,-2.06308 1.78473,-4.1677 4.5871,-11.14028 7.19895,-22.40637 9.5914,-34.16666 1.0334,-4.99475 2.15628,-9.96992 3.27603,-14.94605 6.52596,9.789 5.88664,24.48633 6.65999,35.96429 4.89959,-20.29975 8.7846,-40.63831 11.9882,-61.27242 5.83579,7.55769 8.73491,15.64938 7.99193,25.30813 0.87916,0 1.75836,0 2.66402,0 0.0653,-0.73323 0.13054,-1.46628 0.19773,-2.22168 0.0992,-1.10759 0.19929,-2.21501 0.3018,-3.35596 0.12019,-1.36 0.24035,-2.71991 0.36434,-4.12092 0.33621,-3.55854 0.70371,-7.10496 1.10294,-10.65614 2.34435,-21.59034 2.86095,-43.19831 3.36119,-64.89387 3.95863,3.69048 5.56731,7.18932 7.57592,12.23773 0.58199,1.44746 1.16411,2.89492 1.76385,4.38637 0.4345,1.10754 0.86875,2.21495 1.31639,3.35605 0.28968,-10.79964 -0.38835,-20.99773 -2.24777,-31.63524 -0.23784,-1.3861 -0.47577,-2.77222 -0.72102,-4.20019 -7.5894,-42.20376 -28.02352,-73.70828 -55.6396,-105.3576 -0.14432,4.01813 -0.14432,4.01813 0.87404,7.93484 5.99322,27.3852 4.91031,56.63598 -0.87404,83.97381 -1.9974,-2.99613 -3.62204,-5.75587 -5.20837,-8.9546 -0.46622,-0.93677 -0.93245,-1.87342 -1.41265,-2.83837 -0.47986,-0.97103 -0.95994,-1.94202 -1.45426,-2.94242 -0.48509,-0.97612 -0.97017,-1.95227 -1.46988,-2.95796 -0.89719,-1.8059 -1.79324,-3.61236 -2.68784,-5.41944 -0.80292,-1.62153 -1.60996,-3.2411 -2.4191,-4.85948 -0.0185,1.31211 -0.0185,1.31211 -0.0377,2.65072 -0.30073,17.01761 -1.16381,33.72526 -3.87516,50.54643 -0.22619,1.41821 -0.45239,2.83642 -0.68552,4.29758 -1.69662,9.89031 -1.69662,9.89031 -4.72568,14.43385 -0.25751,-1.3994 -0.51517,-2.79883 -0.7805,-4.24059 -1.80071,-9.72716 -3.64214,-19.42135 -5.87953,-29.05971 -0.11514,1.32557 -0.23012,2.65116 -0.34867,4.01687 -3.80448,39.49829 -18.88005,78.0875 -36.94767,113.20001 -0.43956,0 -0.87903,0 -1.33199,0 -0.43952,-7.47256 -0.87917,-14.94514 -1.332,-22.64411 -17.96304,29.69677 -33.97538,59.54486 -46.62037,91.90861 -0.53732,1.36569 -0.53732,1.36569 -1.08554,2.759 -7.02199,18.05392 -12.03423,36.96559 -16.23059,55.84935 -14.06607,0 -28.13196,0 -42.62435,0 1.50189,-9.01118 1.50189,-9.01118 3.1636,-13.23673 0.35357,-0.90662 0.70734,-1.81326 1.0718,-2.74726 0.99612,-2.42862 2.041,-4.83704 3.0906,-7.24293 4.08873,-9.71063 6.96009,-19.83572 10.03699,-29.90254 1.02697,-3.3135 2.0881,-6.6057 3.19992,-9.89121 3.07809,-9.1331 5.92776,-18.33859 8.74132,-27.55592 0.38805,-1.26541 0.77609,-2.53091 1.17594,-3.83474 1.0409,-3.58854 1.95859,-7.18138 2.8201,-10.81735 0.55898,-2.35666 0.55898,-2.35666 1.12907,-4.76084 7.17033,-33.18522 5.0513,-70.72139 -13.4866,-99.92679 -13.87047,-19.37467 -32.35954,-32.24646 -55.57486,-37.8374 -1.51188,-0.40953 -1.51188,-0.40953 -3.05425,-0.82733 -39.68416,-9.14818 -84.21899,4.21739 -122.15481,15.47941 -27.10524,8.03951 -58.03954,9.39441 -83.83328,-3.66303 -13.81794,-8.27 -24.4347,-18.94143 -28.71625,-34.74672 -2.33752,-14.67721 -1.95241,-30.19645 3.32484,-44.17491 0.87906,0 1.75816,0 2.66401,0 0.87907,1.12649 1.75823,2.25282 2.66402,3.41331 5.58765,6.94321 12.98525,12.84813 21.70373,14.97153 6.00809,0.32055 8.02292,-0.89979 12.91809,-4.28939 0.72409,-0.49073 1.44814,-0.98157 2.19407,-1.48718 2.3428,-1.59719 4.65803,-3.23002 6.97394,-4.86588 1.61505,-1.11483 3.2316,-2.22739 4.84966,-3.33823 3.20513,-2.20678 6.39881,-4.42849 9.58311,-6.66477 3.71331,-2.6067 7.45535,-5.16693 11.21369,-7.70862 22.02094,-14.19354 22.02094,-14.19354 35.79256,-35.31894 0.52578,-4.1813 0.5599,-8.27807 0.49938,-12.4876 0.0231,-1.59683 0.0231,-1.59683 0.0467,-3.22603 -0.0453,-9.35741 -1.30411,-17.94698 -7.67994,-25.10523 -1.86737,-1.42943 -1.86737,-1.42943 -3.77237,-2.88776 -0.69326,-0.54291 -1.38655,-1.08585 -2.10064,-1.64525 -2.30153,-1.78729 -4.63311,-3.52848 -6.97368,-5.26458 -1.681,-1.26215 -3.36162,-2.52479 -5.04182,-3.78784 -2.65929,-1.99429 -5.32145,-3.9843 -7.99174,-5.96355 -6.56463,-4.88083 -12.94514,-9.9507 -19.26763,-15.1405 -7.1982,-5.90617 -14.49347,-11.61253 -21.97811,-17.15488 -12.21446,-9.08715 -24.13162,-18.58909 -36.08681,-28.0131 -1.55899,-1.22653 -3.12046,-2.44991 -4.68489,-3.66958 -3.174491,-2.47532 -6.310983,-4.9697 -9.371213,-7.58557 -0.898015,-0.74867 -1.796026,-1.49731 -2.721257,-2.26867 -0.712569,-0.6249 -1.425141,-1.24981 -2.159316,-1.89388 -5.606726,-2.39159 -11.147353,-0.0749 -16.525234,2.07091 -9.238255,4.63464 -17.388575,9.34694 -24.689073,16.80612 -6.871157,-10.30667 -3.856079,-31.26892 -1.841915,-43.19141 6.307288,-25.9826 21.467566,-49.53354 44.417777,-63.63591 9.352749,-5.49641 18.782891,-9.13979 29.352601,-11.72147 1.30778,-0.32895 1.30778,-0.32895 2.64206,-0.66472 6.9782,-1.67022 13.57596,-2.4711 20.74097,-2.58727 1.60519,-0.0324 1.60519,-0.0324 3.24275,-0.0663 3.50164,-0.0558 7.0021,-0.08 10.50408,-0.0946 1.2068,-0.006 2.41347,-0.0139 3.65684,-0.0208 19.79939,-0.033 38.93867,1.87166 58.44804,5.18289 1.82246,0.30858 1.82246,0.30858 3.68199,0.62347 22.90708,3.95355 22.90708,3.95355 33.14829,7.92446 2.59162,0.64036 2.59162,0.64036 5.00674,-1.12786 1.65785,-1.51196 3.25316,-3.09284 4.81454,-4.70408 19.16314,-18.19579 47.64289,-31.22977 72.56334,-39.09649 2.01701,-0.685497 4.03228,-1.376115 6.04613,-2.070863 2.11907,-0.725662 4.23853,-1.450651 6.35822,-2.174915 0.97132,-0.333644 1.94262,-0.667286 2.94342,-1.011038 47.06531,-15.766723 99.71805,-11.572908 147.15733,-0.07135 z M 266.61172,151.61952 c -3.16855,4.5847 -2.91901,7.22972 -2.35186,12.72694 0.69261,3.41028 1.50131,6.79877 2.41437,10.15674 0.44808,1.69292 0.89623,3.38583 1.35801,5.13019 3.35783,10.12959 8.46009,14.26844 17.53981,19.34534 18.0993,8.47317 34.81958,8.66539 53.69665,2.91372 35.50211,-10.70878 76.84381,-13.70918 112.8045,-2.91372 1.05964,0.31381 2.11931,0.62753 3.21107,0.95104 11.31379,3.4242 21.90937,7.54966 32.75336,12.36911 -12.74744,0.4396 -25.49479,0.87912 -38.62828,1.33194 9.20787,18.41607 43.05134,30.92074 61.27236,38.62834 -21.44527,-0.38609 -38.55967,-9.6325 -57.43839,-18.83415 -2.70519,-1.29332 -2.70519,-1.29332 -6.49805,-2.47792 -0.14942,1.9084 -0.14942,1.9084 -0.30183,3.85547 -1.44254,14.1856 -4.58347,25.57782 -15.09957,35.93825 -13.5829,10.59574 -28.95238,12.57458 -45.63179,11.19259 -13.28744,-1.69366 -23.48693,-9.20546 -32.20747,-19.01812 -2.72601,-3.82448 -4.77067,-7.69532 -6.66009,-11.98811 -0.4893,-1.08691 -0.97878,-2.17382 -1.4829,-3.29362 -3.0731,-7.23002 -5.01749,-14.30802 -6.50924,-22.01455 -6.66148,1.97151 -12.42638,4.8376 -18.48158,8.15851 -0.91688,0.49629 -1.83375,0.99251 -2.77842,1.50387 -2.24048,1.21353 -4.47682,2.43485 -6.7121,3.65776 0,0.87901 0,1.75828 0,2.66396 2.15405,1.90867 4.39061,3.72458 6.65998,5.49455 6.67904,5.33115 12.76343,10.96133 18.64817,17.14957 -6.63306,-0.74605 -12.01498,-2.90256 -17.89889,-5.91071 -0.92601,-0.46988 -1.85197,-0.93978 -2.80616,-1.42373 -26.39034,-13.72196 -56.41488,-33.68447 -69.87166,-60.59804 -0.47873,-7.06108 -0.003,-10.82145 3.08554,-17.24833 1.98686,-5.96082 1.93875,-12.57067 0.91057,-18.71584 -2.45096,-4.79191 -4.06593,-7.37834 -8.9443,-9.75072 -5.0009,-1.24884 -9.9913,-2.492 -15.03194,-3.56947 -1.06921,-0.23001 -2.13857,-0.46013 -3.24027,-0.69718 -8.21338,-1.72983 -16.45592,-3.23342 -24.73181,-4.63085 -0.92388,-0.1618 -1.84807,-0.32361 -2.80005,-0.49038 -13.50821,-2.2861 -27.0713,-2.47716 -40.74013,-2.58989 -2.58688,-0.0352 -2.58688,-0.0352 -5.22589,-0.0713 -26.00614,0.0194 -47.71822,6.81005 -66.702599,24.79673 -13.384589,13.99743 -22.5586,32.27516 -24.392426,51.61551 6.157625,-1.94455 12.077855,-4.29875 18.028967,-6.79006 34.365358,-12.58067 71.204648,6.78902 101.654228,20.88023 10.81853,5.05996 21.47209,10.43139 32.0885,15.90091 31.87577,16.39993 63.95945,30.90921 98.54532,40.74717 7.92359,2.3021 15.78655,4.80296 23.66068,7.26754 11.11415,3.45922 22.23351,6.89779 33.3836,10.23978 1.0592,0.31778 2.11852,0.63561 3.21,0.96299 4.99865,1.49311 10.00333,2.96035 15.02187,4.38597 10.66038,3.04314 21.05935,6.41665 31.38671,10.46354 4.52528,1.87143 4.52528,1.87143 9.32274,2.5027 -4.64723,-10.9489 -16.90804,-17.90222 -26.64008,-23.97609 23.26894,6.71454 45.33234,14.24235 62.6043,31.96814 -1.29119,0.004 -2.58242,0.006 -3.91274,0.0102 -24.70887,0.52902 -45.28411,10.61068 -64.26949,26.21881 -12.39373,10.17329 -24.00767,19.35606 -39.05487,25.20406 -4.7544,1.88802 -9.26831,4.08667 -13.80931,6.42586 -29.58227,15.02225 -59.76504,28.81829 -90.74304,40.70961 -1.21438,0.46663 -2.42879,0.93316 -3.67997,1.41388 -16.6539,6.31271 -33.4917,10.98043 -50.9325,14.57022 -1.57778,0.32964 -3.15582,0.65931 -4.78174,0.99906 -23.07409,4.0274 -49.30965,4.18516 -71.14281,-4.99516 0.45885,11.01015 6.46879,17.52431 14.23584,24.89202 17.28296,14.50177 38.89139,15.41263 60.35687,13.7363 17.25196,-2.37374 33.9689,-7.7725 50.32495,-13.60368 2.94772,-1.04573 5.90478,-2.06028 8.86613,-3.06725 32.59732,-11.14632 64.75157,-23.6219 96.65402,-36.60935 -4.21054,4.32354 -7.99867,7.76726 -13.32016,10.65591 4.02696,2.01351 6.47348,0.37249 10.7132,-0.95735 11.09951,-3.29454 22.29538,-5.52981 33.65933,-7.70062 30.25288,-5.27038 30.25288,-5.27038 59.19118,-15.0684 1.57448,-0.68739 1.57448,-0.68739 3.18074,-1.38853 13.20729,-5.85652 25.91044,-12.26607 37.11257,-21.50547 -4.09617,14.06351 -4.09617,14.06351 -6.66006,19.98027 16.84331,-10.52704 27.81129,-24.55457 35.96433,-42.62438 2.58526,2.58533 1.86365,7.29007 2.08117,10.73933 0.16733,2.57818 0.16733,2.57818 0.3383,5.20843 0.08,1.33069 0.16135,2.66146 0.24452,4.03251 8.90715,-6.87134 12.34377,-18.59175 14.65206,-29.3042 0.99775,-13.19819 1.70362,-27.76542 -3.99596,-39.96039 -0.5512,-1.17955 -1.10239,-2.35927 -1.67027,-3.57459 -4.07492,-8.00545 -9.02807,-14.86994 -14.79775,-21.73877 -2.18016,-2.65908 -2.18016,-2.65908 -3.51219,-5.32309 26.34143,9.24738 46.87119,19.94238 66.60057,39.96027 0.43951,-4.83521 0.87905,-9.67041 1.33193,-14.6521 9.5723,11.85046 17.76029,24.07108 25.30815,37.2963 0.50357,0.87943 1.00714,1.75904 1.52583,2.66532 1.26919,2.21853 2.53599,4.43844 3.80217,6.65867 0.87925,0 1.75831,0 2.66407,0 1.09492,-2.68659 2.17408,-5.3796 3.24687,-8.07533 0.60268,-1.4989 1.20533,-2.99782 1.82626,-4.5423 2.85766,-8.46069 3.20573,-17.08055 3.66819,-25.92739 0.0575,-1.03789 0.11517,-2.07585 0.17426,-3.14528 0.13981,-2.53115 0.27466,-5.06261 0.40854,-7.59407 0.94608,1.34628 1.89228,2.69245 2.86684,4.07937 1.23655,1.74835 2.4731,3.49666 3.70991,5.24473 0.93619,1.33416 0.93619,1.33416 1.89136,2.69526 1.58406,2.23355 3.21438,4.43417 4.85202,6.62885 0.43945,0 0.87906,0 1.33191,0 0.54569,-11.3982 -0.78851,-21.05206 -3.99591,-31.96839 -0.46358,-1.63789 -0.92732,-3.2761 -1.405,-4.9637 -0.91283,-3.21828 -1.83466,-6.43417 -2.76802,-9.64662 -0.89045,-3.11265 -1.73116,-6.21857 -2.48712,-9.36577 8.70668,6.06162 16.79676,12.13914 23.97619,19.9802 3.16895,-8.05176 -2.25687,-17.703 -5.32807,-25.30821 -8.18178,-18.68141 -18.72946,-35.09923 -31.96823,-50.61634 -0.83793,-0.98737 -1.67584,-1.9746 -2.53911,-2.99183 -1.80795,-2.11915 -3.62871,-4.22718 -5.45296,-6.33222 1.19505,0.64555 2.39018,1.29119 3.62149,1.95645 10.04484,5.40262 20.13543,10.66679 30.40205,15.63798 4.10057,2.01238 7.95194,4.10074 11.71752,6.69396 3.20446,2.59734 3.20446,2.59734 6.20731,2.35181 -4.51134,-15.03802 -13.93027,-26.63563 -24.6213,-37.75421 -3.35088,-3.53799 -3.35088,-3.53799 -5.97324,-6.93584 -30.61149,-36.91045 -92.1107,-56.45949 -137.09714,-63.94196 -2.80548,-0.59282 -2.80548,-0.59282 -4.13747,-1.92485 6.22475,-0.0671 12.44939,-0.11483 18.6745,-0.14636 2.10642,-0.0131 4.21282,-0.0309 6.31918,-0.0546 14.96936,-0.16194 29.44547,0.77095 44.27082,2.86503 -4.57982,-4.57987 -11.01025,-5.80475 -17.06638,-7.82549 -2.13482,-0.71363 -2.13482,-0.71363 -4.31284,-1.44166 -13.55233,-4.38756 -27.17956,-7.15086 -41.22524,-9.38096 -1.92508,-0.34981 -1.92508,-0.34981 -3.88908,-0.70667 -26.88826,-4.09813 -55.84053,0.29145 -82.69143,3.37079 5.62841,-1.9287 11.26347,-3.838 16.89974,-5.74433 2.35534,-0.80754 2.35534,-0.80754 4.75823,-1.6313 10.43295,-3.515711 20.84783,-6.346268 31.62226,-8.608582 0,-0.439569 0,-0.879146 0,-1.332012 -67.66424,-1.57652 -130.63826,11.730954 -181.46551,59.201574 z m 118.86099,54.01931 c 0,0.87909 0,1.75836 0,2.664 2.19715,1.99851 4.53383,3.75574 6.89436,5.55691 5.716,5.72836 6.99994,11.6976 7.00865,19.58474 -0.17392,7.83749 -1.06558,13.86277 -5.91096,20.14667 -5.54582,5.2098 -11.04026,5.6812 -18.35156,5.64539 -3.91265,-0.41936 -6.43144,-2.09064 -9.62053,-4.31336 -1.31866,0.6593 -1.31866,0.6593 -2.66404,1.33199 12.17538,9.77188 21.5126,13.31463 37.29633,11.98809 10.81934,-1.57951 18.10762,-8.0636 25.3081,-15.9841 4.68661,-7.44348 5.44636,-15.38284 3.99602,-23.97615 -3.92776,-9.50708 -11.02263,-15.31974 -19.98016,-19.98018 -7.90528,-3.22071 -15.57557,-2.93736 -23.97621,-2.664 z m -21.14554,13.48673 c -2.20248,3.67084 -2.02291,6.29459 -1.49854,10.48941 1.33193,2.66402 1.33193,2.66402 3.99595,3.99608 5.43203,0.56575 7.36704,0.41664 11.98821,-2.66396 0.49709,-4.55823 0.84927,-7.86129 -1.49862,-11.90488 -4.39646,-2.49132 -8.64494,-2.52206 -12.987,0.0824 z m -4.1625,106.39415 c -0.0653,1.7377 -0.13063,3.47532 -0.19785,5.26551 -0.52379,12.645 -1.19888,24.9425 -3.79821,37.35886 7.00264,-4.84811 13.17457,-10.18866 19.23086,-16.15062 0.70866,-0.68554 1.41746,-1.37108 2.14755,-2.0775 4.79005,-4.76225 4.79005,-4.76225 6.59382,-11.07617 -2.74327,-1.72718 -5.49102,-3.44629 -8.24183,-5.16157 -1.15523,-0.72884 -1.15523,-0.72884 -2.33359,-1.47242 -4.34682,-2.70157 -8.57978,-4.96104 -13.40075,-6.68609 z m -127.87299,10.65607 c 0,12.74727 0,25.49474 0,38.62825 0.87914,0 1.75829,0 2.66405,0 -4.83628,5.70712 -9.7901,11.18019 -15.1516,16.40034 -6.60965,6.54257 -12.40201,13.59346 -18.14873,20.89597 -0.60143,0.75835 -1.20286,1.51659 -1.82247,2.29779 -1.87088,2.36305 -3.731,4.73444 -5.58677,7.10951 -0.58893,0.74643 -1.17773,1.49298 -1.78448,2.26204 -3.15909,3.72138 -3.15909,3.72138 -4.12638,8.31077 8.1407,-1.28096 16.0114,-3.23438 23.97616,-5.32804 2.28713,-0.6001 2.28713,-0.6001 4.62051,-1.21233 8.78137,-2.39935 17.12021,-5.19718 25.4642,-8.82978 3.43351,-1.46923 6.86564,-2.86985 10.34396,-4.22492 29.71786,-11.58318 60.27694,-23.99394 86.11225,-43.00944 -6.97761,-6.97761 -20.84287,-5.74813 -30.21991,-5.91068 -29.21219,0.0888 -55.8445,15.81606 -79.0048,32.55093 1.21956,-1.6383 2.44099,-3.27532 3.66304,-4.91182 0.72622,-0.98031 1.45268,-1.96071 2.20096,-2.971 2.12802,-2.77328 2.12802,-2.77328 5.20833,-6.1033 3.08945,-4.57701 3.33688,-8.63252 3.5798,-13.98599 0.14594,-1.44061 0.29194,-2.88123 0.44233,-4.36554 0.58909,-9.19702 0.16593,-14.74999 -5.68718,-22.10827 -2.78741,-3.15416 -2.78741,-3.15416 -5.41126,-5.49449 -0.43963,0 -0.8792,0 -1.33201,0 z"
     fill="#1e1b1e"
     id="path3"
     style="stroke-width:1.33183" />
  <path
     d="m 223.16797,149.22265 c 5.1162,0.63593 10.24304,0.97291 15.3894,1.26848 4.78066,0.83672 6.93573,3.3923 9.71843,7.19542 2.95185,5.9035 2.45054,15.20807 0.43702,21.40056 -0.54598,1.1099 -0.54598,1.1099 -1.10302,2.24245 -2.39904,5.19804 -3.06864,9.41406 -1.99808,14.98518 10.6938,28.51675 50.68364,52.21043 77.06933,64.35789 6.54024,2.76872 6.54024,2.76872 13.50738,3.57459 -7.31132,-7.58597 -14.59013,-14.64891 -23.1541,-20.81255 -0.71081,-0.60437 -1.42168,-1.20886 -2.15405,-1.83157 0,-0.87921 0,-1.75811 0,-2.66396 4.15774,-2.2289 8.32199,-4.44572 12.4876,-6.66015 1.1846,-0.6353 2.36948,-1.27044 3.59016,-1.92519 1.13328,-0.60095 2.26647,-1.20194 3.4341,-1.82113 1.04639,-0.55795 2.09265,-1.11598 3.17062,-1.69094 2.62567,-1.22273 2.62567,-1.22273 5.28962,-1.22273 0.46104,1.93156 0.46104,1.93156 0.93134,3.90235 4.44024,18.00406 10.5359,35.05713 27.23349,45.28309 14.89393,7.546 29.81979,9.30234 46.24561,5.59859 13.65628,-4.89442 22.59954,-12.28308 29.23663,-25.21456 2.91284,-7.84758 3.59497,-15.92691 4.24582,-24.24138 17.40204,6.85066 34.88633,14.55185 49.2844,26.64017 1.0929,0.89104 1.0929,0.89104 2.20789,1.80022 14.23621,11.60929 26.71518,23.73551 36.42039,39.49198 -11.24453,-3.61421 -22.25953,-7.80192 -33.30035,-11.98802 0.7555,0.91349 1.51098,1.82698 2.28945,2.76803 16.65329,21.32987 24.14263,40.58486 21.68672,67.82854 -1.95963,10.79974 -6.03898,21.01187 -13.32008,29.3042 -0.43951,0 -0.87907,0 -1.33198,0 -0.08,-1.33076 -0.16144,-2.66147 -0.24452,-4.03251 -0.16752,-2.57807 -0.16752,-2.57807 -0.3383,-5.20842 -0.10807,-1.71514 -0.21634,-3.43064 -0.32772,-5.19789 0.0457,-4.02323 0.0457,-4.02323 -1.75345,-5.54145 -0.53404,1.08005 -1.06809,2.1601 -1.61823,3.27276 -8.2836,16.1352 -18.22443,28.57579 -33.01406,39.35161 0,-4.39114 0.99013,-6.8781 2.66403,-10.90573 0.4945,-1.20031 0.98899,-2.40062 1.49852,-3.6371 0.38456,-0.91519 0.76921,-1.83036 1.16547,-2.77336 -0.43958,-0.43937 -0.8791,-0.87909 -1.33197,-1.33195 -1.08358,0.74182 -2.16692,1.4835 -3.28319,2.24769 -33.1201,22.23705 -69.45631,30.20408 -108.27272,37.21312 -10.455,1.88962 -20.69728,4.46865 -30.96914,7.15954 2.96678,-3.11651 6.11337,-5.68907 9.57375,-8.24178 0.95307,-0.70565 1.9059,-1.4115 2.88775,-2.13851 0.72299,-0.53058 1.44577,-1.06117 2.19061,-1.60772 -11.03796,4.10158 -22.04988,8.26615 -33.03497,12.50769 -7.63215,2.94593 -15.27049,5.87588 -22.90939,8.80439 -0.86414,0.33184 -1.72816,0.66372 -2.61837,1.00566 -21.98969,8.44421 -43.89138,16.78084 -66.64615,22.97052 -0.93804,0.26016 -1.8759,0.52021 -2.84234,0.78823 -5.6966,1.57903 -11.40062,3.1136 -17.1379,4.5398 -0.89079,0.23717 -1.78157,0.4743 -2.69936,0.71856 -17.49386,4.36042 -39.6056,4.84547 -55.90889,-3.38257 -1.18146,-0.59581 -2.36275,-1.19172 -3.57978,-1.80558 -10.67682,-5.92604 -20.79209,-13.98853 -24.39261,-26.1666 0.43962,-1.31872 0.87922,-2.63743 1.33215,-3.99604 0.93397,0.80523 1.86814,1.61058 2.83048,2.44025 3.8629,2.91293 7.34983,4.65947 11.82154,6.46757 1.34622,0.55459 2.69235,1.10919 4.07936,1.68056 30.2152,10.80839 69.50297,-1.94913 98.4854,-11.92047 1.4601,-0.49765 2.92025,-0.99538 4.42463,-1.50821 25.05891,-8.63199 49.04182,-18.75321 72.832,-30.46005 1.10115,-0.53783 2.20255,-1.07567 3.33714,-1.62979 10.79243,-5.31939 21.386,-11.08622 29.96304,-19.68222 0.43966,-1.31883 0.87916,-2.63742 1.33207,-3.99614 3.12351,-1.40681 6.20446,-2.63348 9.40723,-3.82938 12.03693,-4.85911 20.89062,-12.29907 30.66174,-20.66571 11.84297,-9.94123 24.12318,-17.67579 38.51948,-23.45724 1.48358,-0.6541 1.48358,-0.6541 2.99718,-1.32158 9.62009,-3.82618 20.08345,-3.64282 30.30303,-4.00644 -16.76447,-17.11371 -40.40249,-27.7292 -63.93641,-31.96814 1.35479,0.80083 1.35479,0.80083 2.73684,1.61808 9.22855,5.63682 17.80223,11.77705 25.23535,19.69396 0,0.87909 0,1.7583 0,2.66404 -6.32638,-2.06193 -12.59278,-4.21681 -18.81469,-6.57688 -5.38792,-1.97275 -10.75906,-3.57325 -16.31709,-4.99497 -19.59728,-5.07415 -38.87542,-11.45244 -58.14526,-17.6387 -1.22226,-0.39228 -2.44444,-0.78469 -3.70373,-1.18892 -2.38504,-0.76649 -4.76969,-1.53483 -7.1537,-2.30502 -6.8838,-2.20371 -13.79267,-4.19901 -20.77395,-6.06917 -27.60665,-7.46667 -53.1659,-19.95948 -78.77457,-32.48558 -6.70479,-3.26436 -13.44344,-6.45754 -20.17768,-9.66033 -7.70745,-3.67019 -15.38566,-7.37772 -22.98866,-11.2596 -30.8082,-15.72189 -66.29719,-31.89551 -101.387894,-21.29143 -4.092791,1.45335 -7.826188,3.12544 -11.701907,5.09387 -3.699459,1.81597 -3.699459,1.81597 -6.363484,1.81597 1.026199,-9.91978 2.023476,-16.7832 9.324073,-23.97625 1.385519,-1.81212 2.74472,-3.64463 4.079281,-5.49448 17.661899,-22.9077 42.435301,-34.52422 70.530781,-38.76256 27.0893,-3.35863 54.52155,-1.27146 81.43542,2.49304 z m -49.48465,36.43597 c 0,0.87926 0,1.75823 0,2.66402 5.77174,0.15573 11.54293,0.24976 17.31593,0.33316 2.43909,0.0669 2.43909,0.0669 4.92754,0.13506 9.70831,0.10517 16.16737,-0.46807 24.37683,-5.79626 2.98155,-2.43645 2.98155,-2.43645 3.08029,-5.99394 -0.20604,-1.64832 -0.20604,-1.64832 -0.41632,-3.33002 -15.12982,-10.08664 -36.60967,3.1462 -49.28427,11.98798 z m 21.31213,9.32419 c 13.04794,14.07419 34.45209,23.9037 53.28035,26.64003 -4.3043,-4.74543 -9.18138,-8.0009 -14.65211,-11.23872 -0.88192,-0.52377 -1.7638,-1.04766 -2.67245,-1.58729 -11.4417,-6.66091 -22.9082,-11.42199 -35.95579,-13.81402 z"
     fill="#474b54"
     id="path4"
     style="stroke-width:1.33183" />
  <path
     d="m 549.31,373.47211 c 8.39719,6.61043 14.80358,14.1937 21.3122,22.64408 1.07482,1.38733 2.1497,2.77471 3.25706,4.20411 26.35016,34.93512 39.13445,77.39881 38.03518,121.00482 -2.88478,-4.32723 -4.82664,-8.79953 -6.82657,-13.56989 -0.36925,-0.87134 -0.73834,-1.74273 -1.11872,-2.6406 -0.90715,-2.14294 -1.80944,-4.28821 -2.71079,-6.43371 -0.0191,1.06257 -0.0391,2.12507 -0.0588,3.21981 -1.10249,54.49607 -1.10249,54.49607 -6.60118,80.69681 -0.8791,0 -1.75825,0 -2.66402,0 -0.25752,-1.07654 -0.51502,-2.15308 -0.78047,-3.26236 -0.34678,-1.42356 -0.69366,-2.84679 -1.05105,-4.31349 -0.33994,-1.40621 -0.67985,-2.81243 -1.0302,-4.26128 -1.0265,-3.75284 -2.2731,-7.2328 -3.79827,-10.80698 -1.43393,7.16036 -2.86377,14.32148 -4.28739,21.48384 -0.569,2.85653 -1.13774,5.71307 -1.70671,8.56961 -0.28319,1.42769 -0.56659,2.85549 -0.8585,4.32642 -0.55503,2.78414 -1.11514,5.56715 -1.6806,8.34916 -0.51098,2.51387 -1.01114,5.03 -1.49855,7.5485 -0.56605,2.79569 -1.24908,5.56743 -1.95634,8.33087 -0.87917,0.43962 -1.75814,0.87921 -2.66396,1.33203 -0.0667,-0.8195 -0.13357,-1.63894 -0.20233,-2.48327 -0.30974,-3.72434 -0.63624,-7.44699 -0.96328,-11.16989 -0.10459,-1.28954 -0.20942,-2.579 -0.31737,-3.9075 -0.1116,-1.24482 -0.22323,-2.48985 -0.33812,-3.77236 -0.0971,-1.14403 -0.1954,-2.28799 -0.29602,-3.46656 -0.56467,-3.27535 -1.57563,-5.6257 -3.21095,-8.5007 -0.24216,1.27238 -0.48429,2.54467 -0.73372,3.8556 -5.50446,28.3131 -14.89756,54.63417 -28.57049,80.061 -0.45443,0.86238 -0.90877,1.72486 -1.37692,2.61329 -9.04591,17.11425 -19.8352,32.89288 -31.92336,48.00307 62.6377,0.6594 62.6377,0.6594 126.54093,1.33203 0,0.43954 0,0.87907 0,1.33194 -69.89048,0 -139.7811,0 -211.78955,0 1.79172,-11.64616 3.71594,-21.99046 7.24279,-33.05036 0.5989,-1.94074 0.5989,-1.94074 1.20974,-3.92065 12.60189,-40.42991 31.39429,-80.03115 55.48397,-114.87802 0.43952,0 0.87913,0 1.332,0 0.65934,10.5496 0.65934,10.5496 1.33199,21.31222 7.80355,-15.88592 14.19622,-31.82753 20.0588,-48.51598 1.2541,-3.43445 2.61629,-6.80664 4.01099,-10.18622 2.53627,-6.276 4.44123,-12.57059 6.06694,-19.13714 0.28187,-1.12603 0.56383,-2.25196 0.8543,-3.41202 2.82738,-11.87199 4.05242,-23.81671 4.97321,-35.96554 3.28414,3.28416 3.59646,5.49631 4.66203,9.99002 0.31603,1.30497 0.6319,2.60989 0.95741,3.95443 1.32533,5.99053 2.5222,12.0036 3.70467,18.02377 4.35313,-23.12668 6.34003,-45.74 6.66006,-69.26451 3.40059,3.20284 5.97342,5.94848 7.88797,10.21907 0.4035,0.88423 0.80697,1.76849 1.22269,2.67961 0.60018,1.36242 0.60018,1.36242 1.21241,2.75243 0.4206,0.92889 0.84131,1.85783 1.27473,2.81492 1.02891,2.27591 2.04306,4.55842 3.05424,6.84222 4.26812,-13.37374 4.29506,-26.66277 4.32904,-40.62637 0.003,-0.88184 0.005,-1.76384 0.008,-2.67251 0.0102,-13.96078 -1.08645,-27.02552 -4.33713,-40.61781 -0.45205,-2.2184 -0.89927,-4.43772 -1.33195,-6.65996 z"
     fill="#484b55"
     id="path5"
     style="stroke-width:1.33183" />
  <path
     d="m 448.07723,92.417999 c -4.80653,2.531642 -9.33863,3.708644 -14.6521,4.911794 -13.21749,3.116967 -25.89061,7.741657 -38.62813,12.404417 1.05538,-0.12115 2.11089,-0.2422 3.19853,-0.36686 51.20852,-5.74388 97.74984,-4.6951 145.98644,15.01887 -4.6763,1.58207 -7.9957,1.0394 -12.79461,0.0933 -11.43121,-1.90334 -22.694,-1.71786 -34.24195,-1.59216 -2.16712,0.013 -4.33428,0.0254 -6.50139,0.036 -5.24243,0.0287 -10.48438,0.0743 -15.72655,0.13013 4.42684,1.51735 8.77844,2.95014 13.36173,3.90234 0.95913,0.20372 1.91831,0.40751 2.90649,0.61727 1.00507,0.21179 2.01035,0.42367 3.04587,0.64194 41.3267,9.08468 78.82622,26.54256 112.55485,52.11485 1.82094,1.36248 1.82094,1.36248 3.67854,2.75243 5.96958,4.79067 8.39939,8.28763 9.64154,15.89568 -0.99927,-0.59582 -1.99867,-1.1917 -3.02827,-1.80548 -4.29997,-2.53986 -8.62137,-5.0381 -12.95585,-7.51841 -1.06631,-0.61641 -2.13256,-1.23302 -3.23123,-1.86806 -13.46005,-7.27625 -29.4416,-11.95076 -44.72117,-12.78429 0.59927,0.50328 1.19852,1.0064 1.81589,1.52458 14.03567,12.01056 25.51519,24.29088 35.48044,39.7678 -1.31864,0.65932 -1.31864,0.65932 -2.66401,1.33208 -3.47875,-1.65344 -6.7999,-3.37135 -10.15653,-5.24481 -0.94105,-0.51426 -1.88194,-1.02853 -2.85143,-1.55821 -2.32924,-1.27489 -4.65144,-2.56278 -6.97213,-3.85306 3.51646,4.83519 7.03294,9.67038 10.65601,14.65201 -5.08446,0 -6.27906,-1.46716 -10.23984,-4.57879 -14.97714,-11.17843 -35.07092,-24.39288 -53.69664,-27.38925 0.7109,0.71414 1.42172,1.42835 2.15413,2.1644 13.68263,14.39281 25.05637,32.10292 31.14609,51.11582 -0.43952,0.87929 -0.87901,1.75829 -1.33195,2.66402 -1.12127,-0.74514 -2.2425,-1.49035 -3.39773,-2.25815 -38.941,-25.36392 -81.01712,-44.26832 -127.13927,-51.02203 1.74931,-3.49875 3.13676,-3.59593 6.76408,-4.91716 1.10755,-0.40598 2.21503,-0.8122 3.35605,-1.2305 1.16589,-0.41649 2.33181,-0.83271 3.53306,-1.26188 1.71782,-0.63217 1.71782,-0.63217 3.4704,-1.27722 5.38272,-1.95322 10.53084,-3.60592 16.17661,-4.63337 -9.4016,-1.11049 -18.67447,-1.57534 -28.13868,-1.58183 -1.83376,-0.0244 -1.83376,-0.0244 -3.70458,-0.0491 -19.77433,-0.0408 -38.18382,3.77761 -57.15163,8.87415 -2.02446,0.53281 -4.04942,1.06442 -6.07472,1.59474 -10.68773,2.8023 -10.68773,2.8023 -21.32185,5.79956 -1.29387,0.37753 -2.58793,0.75507 -3.92123,1.14403 -1.63719,0.49719 -1.63719,0.49719 -3.30757,1.00447 -3.20414,0.58202 -5.18698,0.22395 -8.24867,-0.80148 14.96729,-18.8253 34.67989,-30.71823 55.94453,-41.29236 -27.48663,3.0797 -49.95122,9.07353 -74.69933,21.40779 -3.01565,1.45814 -6.08045,2.72704 -9.21739,3.90048 8.48904,-14.91554 19.86951,-26.61827 31.96828,-38.62841 -21.52025,3.77551 -40.85049,13.4161 -55.94446,29.30417 -0.87914,0 -1.75823,0 -2.66407,0 -1.59393,-4.98133 -1.81921,-9.45006 -1.33197,-14.652 2.1938,-3.09259 4.015,-5.22478 6.74342,-7.74241 0.71073,-0.68112 1.42167,-1.36228 2.154,-2.06399 7.57513,-7.02317 15.97167,-12.67088 24.75279,-18.06497 2.01444,-1.24737 3.99407,-2.55046 5.96679,-3.86279 21.04946,-13.398 46.59134,-21.89633 70.9398,-26.874298 1.01257,-0.214207 2.02491,-0.428404 3.06798,-0.649097 23.13823,-4.680738 46.7116,-3.747911 70.19259,-3.346933 z"
     fill="#b94a19"
     id="path6"
     style="stroke-width:1.33183" />
  <path
     d="m 554.6381,173.67064 c 22.86473,1.08872 45.94613,9.84093 63.93634,23.97625 0.65938,-1.97795 0.65938,-1.97795 1.33205,-3.99623 11.4728,10.5313 19.97787,23.23951 26.64013,37.29643 0,0.87904 0,1.75818 0,2.66396 -4.29351,-2.09713 -8.49315,-4.35868 -12.70118,-6.62136 -12.44263,-6.67238 -25.08703,-12.7945 -37.91512,-18.68686 3.25739,4.14889 6.6197,8.07223 10.23979,11.90489 16.1666,18.17612 29.58081,42.90054 35.04851,66.68372 -0.50466,3.22586 -0.50466,3.22586 -1.332,5.32801 -0.61465,-0.66108 -1.22936,-1.32214 -1.86269,-2.00323 -6.76338,-7.04403 -13.95647,-12.62805 -22.1135,-17.97693 0.98412,4.31256 2.32401,8.48996 3.68298,12.69703 4.73237,14.72458 7.45531,27.65585 6.97307,43.24741 -4.01858,-3.80528 -7.20017,-7.75697 -10.32301,-12.32113 -0.81734,-1.18817 -1.63469,-2.37634 -2.47669,-3.60052 -0.61132,-0.8998 -1.22258,-1.79948 -1.85234,-2.72656 -0.0974,2.19701 -0.0974,2.19701 -0.19773,4.43837 -0.77437,15.9275 -1.77742,30.39803 -9.12639,44.84599 -3.99598,-1.33187 -3.99598,-1.33187 -6.24899,-5.17717 -0.83886,-1.68351 -1.66905,-3.3714 -2.4922,-5.06254 -6.71752,-13.21481 -15.23597,-24.87659 -24.55903,-36.38057 -0.43957,4.83523 -0.87911,9.67037 -1.33193,14.6521 -0.85168,-0.87912 -1.70343,-1.75829 -2.58081,-2.66396 -7.32462,-7.26323 -14.50954,-13.87809 -23.47671,-19.06448 -6.91944,-4.23811 -10.71865,-9.03326 -15.21401,-15.70314 -10.46098,-15.04274 -24.57425,-26.20603 -39.23705,-36.90605 -2.07605,-1.5869 -2.07605,-1.5869 -4.74008,-4.25098 0.94778,0.19075 1.89562,0.38118 2.87212,0.57772 3.70222,0.73732 7.40512,1.46632 11.11395,2.16961 1.22247,0.23523 2.44504,0.47046 3.70471,0.71284 3.4895,0.51641 6.76045,0.63159 10.28142,0.5359 -1.3256,-0.58381 -2.6511,-1.16757 -4.01684,-1.76905 -11.24247,-5.06106 -22.0297,-10.63116 -32.61344,-16.96229 -1.08047,-0.64182 -2.16089,-1.28351 -3.27412,-1.94474 -7.46045,-4.53481 -14.95234,-9.33129 -21.36796,-15.28818 0,-0.87914 0,-1.75827 0,-2.66408 25.86479,-2.66158 45.83058,-3.48333 68.4774,11.1036 3.66613,2.35466 7.39701,4.56124 11.16215,6.75374 6.36809,3.7243 12.66909,7.54397 18.92903,11.44692 0,-19.29921 -20.09041,-39.77021 -31.96814,-53.28024 2.66395,-1.3322 2.66395,-1.3322 5.0887,-0.67128 20.86259,8.52194 40.74591,19.16835 58.84766,32.63928 -3.51648,-4.8351 -7.0329,-9.67029 -10.65605,-14.65199 5.29223,0 8.9863,2.28061 13.56985,4.66196 0.8715,0.44475 1.74276,0.88951 2.6406,1.34766 2.14822,1.0976 4.29148,2.20517 6.43368,3.31443 -9.54482,-14.42477 -20.99183,-26.54234 -33.3002,-38.62833 -1.33343,-1.3304 -2.66612,-2.66196 -3.99593,-3.99593 z"
     fill="#793214"
     id="path7"
     style="stroke-width:1.33183" />
  <path
     d="m 325.53231,140.3703 c -1.66642,1.59685 -1.66642,1.59685 -3.36639,3.22607 -16.344,15.13796 -16.344,15.13796 -27.26973,34.0702 1.35647,-0.77267 2.71292,-1.54524 4.11047,-2.34135 20.66613,-11.52093 53.30181,-27.2204 77.55893,-22.34792 0.74153,0.23532 1.4832,0.47059 2.2472,0.71315 -1.4802,0.75712 -2.96025,1.51438 -4.48513,2.2946 -14.77497,7.63367 -27.93942,15.92649 -40.72007,26.59343 -0.74127,0.61792 -1.48249,1.23581 -2.24635,1.87232 -3.81058,3.24809 -6.90669,6.48094 -9.82485,10.53201 10.03157,-1.67838 19.81542,-3.86107 29.63716,-6.4937 1.33668,-0.35141 2.67362,-0.7031 4.05096,-1.06533 5.77314,-1.5222 11.53749,-3.06475 17.27679,-4.71005 26.54982,-7.50512 53.57851,-7.92721 80.90396,-5.04716 -1.33206,2.66402 -1.33206,2.66402 -4.68805,3.85569 -1.44745,0.40337 -2.89491,0.80681 -4.38626,1.22267 -4.55989,1.27198 -8.75662,2.52709 -13.04166,4.55446 -10.99586,5.16552 -20.28533,5.85593 -32.32992,5.76856 -3.66382,0.0344 -7.32613,0.10596 -10.98904,0.19256 -1.35125,0.0312 -1.35125,0.0312 -2.72974,0.0641 -16.83164,0.50116 -32.98831,4.23406 -48.96894,9.31715 -17.91039,5.64936 -35.13083,4.26779 -51.93278,-4.32379 -9.14709,-5.30812 -13.34437,-8.49552 -16.33265,-18.90314 -0.45844,-1.57087 -0.9169,-3.14205 -1.38931,-4.7607 -0.33813,-1.20369 -0.67651,-2.40743 -1.02508,-3.64747 13.60798,-14.02017 28.33478,-22.32373 46.62029,-29.30428 2.04768,-0.79326 2.04768,-0.79326 4.13671,-1.60255 3.98609,-1.09744 5.37137,-0.88163 9.18348,0.2705 z"
     fill="#6e2d13"
     id="path8"
     style="stroke-width:1.33183" />
  <path
     d="m 232.29168,336.17578 c 11.78857,11.78871 11.78857,11.78871 12.55522,17.67513 -0.15242,4.76713 -0.32844,9.52943 -0.5671,14.29317 0.0339,1.01295 0.0686,2.02599 0.10392,3.06977 -0.0679,8.20813 -5.60617,13.33952 -10.71847,19.14761 -2.72636,2.85192 -2.72636,2.85192 -4.03766,5.75473 0.63417,-0.42147 1.26819,-0.84283 1.92169,-1.27708 29.45952,-19.43929 59.0724,-36.55622 95.55443,-29.7858 3.9658,0.91116 7.85917,1.8983 11.7486,3.09077 -4.39329,4.88276 -9.44097,8.131 -15.06841,11.40519 -0.98663,0.57456 -1.97334,1.14902 -2.98971,1.74075 -35.62783,20.34673 -90.15465,50.79043 -132.45894,50.79043 2.08281,-6.68506 6.09196,-11.35282 10.48962,-16.65012 0.76683,-0.93311 1.53369,-1.86621 2.324,-2.82761 9.06735,-10.93455 18.63187,-21.3947 28.72856,-31.38848 3.70233,-3.30735 3.70233,-3.30735 5.07825,-6.41021 -0.87914,0 -1.75828,0 -2.66405,0 0,-12.74725 0,-25.49472 0,-38.62825 z"
     fill="#d2552f"
     id="path9"
     style="stroke-width:1.33183" />
  <path
     d="m 385.47271,205.63883 c 13.5865,-0.68567 24.15013,0.92462 34.90287,9.69877 6.29672,6.02289 9.42468,11.45434 9.80276,20.27143 -0.57485,10.4214 -4.2018,16.55984 -11.6551,23.72646 -9.5844,7.93233 -18.88639,9.83387 -31.23459,9.55817 -8.5057,-1.2348 -17.31976,-4.86945 -22.9096,-11.57708 -0.51159,-0.78986 -1.02319,-1.57964 -1.55042,-2.3934 6.32703,2.49757 6.32703,2.49757 9.32402,3.99601 7.52438,0.78256 13.61346,0.44587 19.98028,-3.99601 7.44642,-9.66035 7.83259,-18.73835 6.65992,-30.63623 -2.654,-7.21311 -7.21905,-11.45191 -13.32014,-15.98412 0,-0.87911 0,-1.75828 0,-2.664 z"
     fill="#f3ede6"
     id="path10"
     style="stroke-width:1.33183" />
  <path
     d="m 346.84452,384.12821 c 1.31861,0.65916 1.31861,0.65916 2.66402,1.33188 -25.27091,24.43108 -62.12317,37.22268 -94.51477,49.1101 -4.36669,1.62248 -8.70518,3.31014 -13.04505,5.00279 -29.67932,11.43186 -68.54303,22.73259 -100.23372,15.15164 0,-0.43949 0,-0.87913 0,-1.33197 2.19786,0 4.39569,0 6.66014,0 0,-1.75827 0,-3.51648 0,-5.32809 1.62944,-0.0495 3.25886,-0.0991 4.9377,-0.15082 61.40369,-2.24397 115.10286,-27.15975 169.87813,-52.91113 1.51573,-0.70862 3.03134,-1.41718 4.59309,-2.14756 2.92034,-1.36927 5.83514,-2.75055 8.74397,-4.14416 1.97983,-0.93442 1.97983,-0.93442 3.99979,-1.88751 1.15923,-0.55389 2.3185,-1.10803 3.51279,-1.67865 1.38799,-0.50331 1.38799,-0.50331 2.80391,-1.01652 z"
     fill="#a5a5a8"
     id="path11"
     style="stroke-width:1.33183" />
  <path
     d="m 151.11719,138.79157 c 2.71794,-0.003 5.43533,-0.0268 8.15342,-0.0519 28.42932,-0.12443 28.42932,-0.12443 37.05676,5.62721 -2.47243,2.47258 -6.58779,1.5651 -9.89644,1.61296 -1.80776,0.0336 -3.6159,0.0688 -5.42393,0.10518 -1.42714,0.0263 -1.42714,0.0263 -2.88289,0.053 -38.35466,0.78272 -71.91177,5.40934 -100.678555,33.03779 -5.055161,5.27052 -9.162846,10.93164 -12.98708,17.13918 -0.439567,-0.87898 -0.879136,-1.75822 -1.332015,-2.66407 7.562624,-19.54679 22.195075,-37.55798 41.29223,-46.62029 15.7037,-6.09046 29.8718,-8.24075 46.6985,-8.23878 z"
     fill="#acabae"
     id="path12"
     style="stroke-width:1.33183" />
  <path
     d="m 211.06281,170.75684 c 1.38903,-0.0187 2.77811,-0.0376 4.20931,-0.0572 3.69942,0.30702 3.69942,0.30702 7.69547,2.97103 0.66614,3.16337 0.66614,3.16337 0,6.65995 -5.05168,5.05187 -10.24304,7.76273 -17.37752,8.29448 -1.47171,-0.0137 -2.94379,-0.0276 -4.46022,-0.0423 -1.60114,-0.008 -3.20227,-0.017 -4.85176,-0.0258 -1.65957,-0.0224 -3.3192,-0.0446 -5.02886,-0.0676 -2.52815,-0.0177 -2.52815,-0.0177 -5.10696,-0.0362 -4.15331,-0.0311 -8.30602,-0.0747 -12.45895,-0.13025 0,-0.87894 0,-1.75821 0,-2.66402 3.87926,-2.20256 7.76635,-4.39078 11.65508,-6.57671 1.0988,-0.62407 2.19782,-1.24843 3.33011,-1.89135 1.06448,-0.59676 2.1291,-1.19346 3.22581,-1.80822 0.97663,-0.55095 1.95322,-1.10199 2.95935,-1.6699 5.39329,-2.64071 10.24369,-2.91862 16.20914,-2.9556 z"
     fill="#1f1b1c"
     id="path13"
     style="stroke-width:1.33183" />
  <path
     d="m 360.16467,325.51971 c 5.69013,2.03604 10.64713,4.94857 15.73434,8.15851 0.7958,0.49634 1.59161,0.99246 2.41158,1.50377 1.94645,1.21455 3.88867,2.43556 5.83025,3.6578 -1.97748,7.07591 -6.63232,11.17559 -11.73834,16.15066 -0.82161,0.82595 -1.64327,1.6518 -2.48977,2.50273 -4.29803,4.24781 -8.33536,7.82802 -13.74412,10.6509 0.26527,-1.26726 0.26527,-1.26726 0.53591,-2.56006 2.5135,-13.28279 2.95372,-26.58071 3.46015,-40.06431 z"
     fill="#cf5631"
     id="path14"
     style="stroke-width:1.33183" />
  <path
     d="m 194.99545,194.98281 c 19.96917,3.63062 36.93283,13.66668 53.28035,25.30812 -4.83314,2.41665 -9.84114,-0.42521 -14.75617,-1.99798 -13.71502,-4.96951 -27.42172,-12.52939 -38.52418,-21.97821 0,-0.43971 0,-0.87899 0,-1.33193 z"
     fill="#a3a3a7"
     id="path15"
     style="stroke-width:1.33183" />
  <path
     d="m 374.81666,217.62691 c 2.49751,1.4153 2.49751,1.4153 3.99613,3.99593 0.49941,4.74553 0.49941,4.74553 0,9.32425 -4.62117,3.0806 -6.55618,3.22971 -11.98821,2.66396 -2.49741,-1.49858 -2.49741,-1.49858 -3.99595,-3.99608 -0.52437,-4.19482 -0.70394,-6.81857 1.49854,-10.48941 3.67093,-2.20254 6.29466,-2.02301 10.48949,-1.49865 z"
     fill="#f3eee7"
     id="path16"
     style="stroke-width:1.33183" />
  <path
     d="m 117.73878,440.07248 c 1.30071,0.57434 1.30071,0.57434 2.62775,1.16035 5.01639,1.87063 10.05187,3.08631 15.27121,4.25103 1.57205,0.35223 1.57205,0.35223 3.17588,0.71151 9.38978,2.0073 18.60417,2.89234 28.20959,3.20123 0,0.43954 0,0.87918 0,1.33204 -6.15379,0 -12.3077,0 -18.64807,0 0,0.87911 0,1.75818 0,2.66401 -10.28879,1.1871 -18.03368,-2.43289 -26.64024,-7.99204 -2.47147,-2.93464 -2.47147,-2.93464 -3.99612,-5.32813 z"
     fill="#ababaf"
     id="path17"
     style="stroke-width:1.33183" />
  <path
     d="m 192.33149,141.70235 c 11.08869,0.63397 21.46481,2.69622 32.21792,5.41127 1.52222,0.37522 3.04428,0.75045 4.61254,1.13695 3.70971,0.91581 7.41684,1.84112 11.12179,2.77586 0,0.43952 0,0.87911 0,1.33208 -10.50517,-1.00728 -20.9865,-2.19221 -31.46877,-3.41333 -1.59169,-0.18453 -3.18342,-0.3693 -4.82331,-0.55928 -3.88684,-0.45089 -7.77355,-0.9027 -11.66017,-1.35552 0.87897,-0.87912 1.7582,-1.75818 2.66396,-2.66401 -0.87922,-0.87906 -1.75823,-1.75818 -2.66396,-2.66402 z"
     fill="#97969b"
     id="path18"
     style="stroke-width:1.33183" />
</svg>
