<?xml version="1.0" standalone="no"?>
<!DOCTYPE svg PUBLIC "-//W3C//DTD SVG 20010904//EN" "http://www.w3.org/TR/2001/REC-SVG-20010904/DTD/svg10.dtd">
<!-- Created using Krita: https://krita.org -->
<svg xmlns="http://www.w3.org/2000/svg" 
    xmlns:xlink="http://www.w3.org/1999/xlink"
    xmlns:krita="http://krita.org/namespaces/svg/krita"
    xmlns:sodipodi="http://sodipodi.sourceforge.net/DTD/sodipodi-0.dtd"
    width="1800pt"
    height="1800pt"
    viewBox="0 0 1800 1800">
<defs/>
<rect id="shape0" fill="#fa7a1c" fill-rule="evenodd" width="1799.99999999986" height="1799.99999999986"/><path id="path3" transform="matrix(2.36220472440926 0 0 2.48275862068946 95.7396187856559 179.819943373853)" fill="#1e1b1e" stroke-opacity="0" stroke="#000000" stroke-width="0" stroke-linecap="square" stroke-linejoin="bevel" d="M445.17 19.9189C482.75 24.5867 533.032 40.0872 557.051 63.8616C546.904 65.1639 545.979 65.4156 537.071 65.1936C572.924 75.288 605.954 92.2284 638.304 155.771C630.712 155.105 626.021 153.549 618.324 150.443C627.148 161.711 634.308 183.635 634.308 199.727C629.034 197.818 621.709 193.422 612.996 187.739C617.952 199.216 628.339 239.126 627.621 265.002C623.474 257.043 609.247 244.37 606.122 244.259C607.928 259.23 625.168 384.915 627.624 413.506C630.439 444.651 641.932 531.929 667.192 594.668C673.532 605.65 701.508 648.512 703.576 652.848C682.784 653.075 347.27 652.848 332.777 652.848C334.279 643.837 334.776 642.267 336.437 638.042C336.791 637.135 337.145 636.228 337.509 635.294C338.505 632.866 339.55 630.457 340.6 628.051C344.688 618.341 347.56 608.216 350.637 598.149C351.664 594.835 359.764 569.919 362.578 560.702C362.966 559.436 367.218 543.979 367.788 541.575C374.958 508.39 374.875 470.275 356.337 441.07C342.467 421.695 340.111 412.889 301.647 401.328C263.183 389.767 211.368 406.915 173.433 418.177C146.327 426.216 115.393 427.571 89.5993 414.514C75.7813 406.244 65.1646 395.572 60.883 379.767C58.5455 365.09 58.9306 349.571 64.2079 335.592C65.0869 335.592 65.966 335.592 66.8719 335.592C67.7509 336.719 68.6301 337.845 69.5359 339.005C75.1235 345.949 82.5211 351.854 91.2396 353.977C97.2477 354.297 99.2625 353.077 104.158 349.688C104.882 349.197 105.606 348.706 106.352 348.2C108.695 346.603 111.01 344.97 113.326 343.334C114.941 342.22 116.557 341.107 118.175 339.996C121.381 337.789 124.574 335.568 127.758 333.331C131.472 330.725 135.214 328.165 138.972 325.623C160.993 311.429 160.993 311.429 174.765 290.304C175.291 286.123 175.325 282.026 175.264 277.816C175.287 276.22 175.287 276.22 175.311 274.59C175.266 265.233 174.007 256.643 167.631 249.485C165.764 248.056 165.764 248.056 163.859 246.597C163.165 246.054 162.472 245.511 161.758 244.952C159.456 243.165 157.125 241.424 154.784 239.687C153.103 238.425 151.423 237.163 149.742 235.9C147.083 233.905 144.421 231.915 141.751 229.936C135.186 225.055 128.805 219.985 122.483 214.796C115.285 208.889 107.99 203.183 100.505 197.641C88.2904 188.554 76.3733 179.052 64.4181 169.628C62.8591 168.401 61.2976 167.178 59.7332 165.958C56.5587 163.483 53.4222 160.988 50.362 158.372C49.464 157.624 48.566 156.875 47.6407 156.104C46.9282 155.479 46.2156 154.854 45.4814 154.21C39.8747 151.818 34.3341 154.135 28.9562 156.281C19.7179 160.915 11.5676 165.628 4.2671 173.087C-2.60405 162.78 0.411026 141.818 2.42519 129.896C8.73248 103.913 23.8928 80.3616 46.843 66.2592C56.1957 60.7628 65.6259 57.1194 76.1956 54.5378C77.5033 54.2088 77.5033 54.2088 78.8376 53.873C85.8158 52.2028 92.4136 51.4019 99.5786 51.2858C101.184 51.2534 101.184 51.2534 102.821 51.2195C106.323 51.1637 109.823 51.1395 113.325 51.1249C114.532 51.1189 115.739 51.111 116.982 51.1041C136.782 51.0711 155.921 52.9757 175.43 56.287C187.819 57.9254 199.485 60.6039 210.6 64.9586C213.49 65.8206 215.044 65.3855 217.459 63.6173C247.437 25.096 363.708 -24.4234 467.684 13.7081C457.669 17.0303 450.165 19.1006 445.17 19.9189Z" sodipodi:nodetypes="ccccccccccccccccccccscccccccccccccccccccccccccccccccccccccccccccc"/><path id="path4" transform="matrix(2.36220472440926 0 0 2.48275862068946 136.531688976367 360.106257117169)" fill="#474b54" stroke-opacity="0" stroke="#000000" stroke-width="0" stroke-linecap="square" stroke-linejoin="bevel" d="M165.37 4.17986C170.486 4.81579 175.613 5.15277 180.759 5.44834C185.54 6.28506 187.695 8.84064 190.477 12.6438C193.429 18.5473 192.928 27.8518 190.914 34.0443C190.368 35.1542 190.368 35.1542 189.811 36.2868C187.412 41.4848 186.743 45.7008 187.813 51.2719C198.507 79.7887 238.497 103.482 264.883 115.63C271.423 118.399 271.423 118.399 278.39 119.204C271.079 111.618 263.8 104.556 255.236 98.3919C254.525 97.7875 253.814 97.183 253.082 96.5603C253.082 95.6811 253.082 94.8022 253.082 93.8963C257.24 91.6674 261.404 89.4506 265.569 87.2362C266.754 86.6009 267.939 85.9658 269.16 85.311C270.293 84.7101 271.426 84.1091 272.594 83.4899C273.64 82.9319 274.686 82.3739 275.764 81.7989C278.39 80.5762 278.39 80.5762 281.054 80.5762C281.515 82.5078 281.515 82.5078 281.985 84.4786C286.426 102.483 292.521 119.536 309.219 129.762C324.113 137.308 339.039 139.064 355.464 135.36C369.121 130.466 378.064 123.077 384.701 110.146C387.614 102.298 388.296 94.2188 388.947 85.9043C406.349 92.755 423.833 100.456 438.231 112.544C439.324 113.436 439.324 113.436 440.439 114.345C454.675 125.954 467.154 138.08 476.86 153.837C465.615 150.222 454.6 146.035 443.559 141.849C444.315 142.762 445.07 143.676 445.849 144.617C462.502 165.947 472.632 183.217 470.176 210.461C468.216 221.26 461.496 233.457 454.215 241.749C453.776 241.749 452.719 242.574 452.266 242.574C452.186 241.243 451.631 239.115 451.548 237.744C451.381 235.166 451.463 235.341 451.292 232.711C451.184 230.996 451.184 229.493 450.948 227.065C450.728 222.536 451.035 223.735 449.236 222.217C448.702 223.297 445.43 231.984 444.88 233.097C436.596 249.232 429.248 254.217 414.459 264.993C414.459 260.602 416.105 257.424 417.778 253.396C418.273 252.196 418.775 251.093 419.285 249.857C419.669 248.942 420.373 247.811 420.77 246.868C420.33 246.428 420.036 246.198 419.583 245.745C418.499 246.487 417.416 247.229 416.3 247.993C383.18 270.23 346.844 278.197 308.027 285.206C297.572 287.096 287.33 289.675 277.058 292.366C280.025 289.249 283.171 286.677 286.632 284.124C287.585 283.418 288.538 282.712 289.52 281.985C290.243 281.455 290.965 280.924 291.71 280.378C280.672 284.479 269.66 288.644 258.675 292.885C251.043 295.831 243.405 298.761 235.766 301.69C234.902 302.022 234.038 302.354 233.147 302.695C211.158 311.14 189.256 319.476 166.501 325.666C165.563 325.926 164.625 326.186 163.659 326.454C157.962 328.033 152.258 329.568 146.521 330.994C145.63 331.231 144.739 331.468 143.822 331.713C126.328 336.073 104.216 336.558 87.9128 328.33C86.7313 327.734 85.55 327.138 84.333 326.524C73.6562 320.598 63.5409 312.536 59.9404 300.358C60.38 299.039 60.8196 297.72 61.2725 296.362C62.2065 297.167 63.1407 297.972 64.103 298.802C67.9659 301.715 71.4528 303.461 75.9245 305.27C77.2708 305.824 78.6169 306.379 80.0039 306.95C110.219 317.759 149.507 305.001 178.489 295.03C179.949 294.532 181.41 294.034 182.914 293.521C207.973 284.889 231.956 274.768 255.746 263.061C256.847 262.524 257.948 261.986 259.083 261.432C269.875 256.112 280.469 250.345 289.046 241.749C289.486 240.431 289.666 239.422 290.119 238.063C293.243 236.656 296.583 235.12 299.785 233.924C311.822 229.065 320.676 221.625 330.447 213.258C342.29 203.317 354.57 195.582 368.967 189.801C370.45 189.147 370.45 189.147 371.964 188.479C381.584 184.653 392.047 184.837 402.267 184.473C385.502 167.359 361.864 156.744 338.33 152.505C339.685 153.306 339.685 153.306 341.067 154.123C350.296 159.76 356.082 164.653 363.515 172.57C363.515 173.449 364.595 174.589 364.595 175.495C358.269 173.433 353.71 172.264 347.488 169.904C342.1 167.931 336.729 166.331 331.171 164.909C311.574 159.835 292.295 153.457 273.026 147.27C271.803 146.878 270.581 146.486 269.322 146.081C266.937 145.315 264.552 144.547 262.168 143.776C255.284 141.573 248.375 139.577 241.394 137.707C213.788 130.241 188.228 117.748 162.62 105.222C155.915 101.957 149.176 98.7641 142.442 95.5613C134.734 91.8911 127.056 88.1836 119.453 84.3017C88.6451 68.5798 53.1561 52.4062 18.0654 63.0103C13.9726 64.4636 10.2392 66.1357 6.36348 68.1041C2.66403 69.9201 2.66403 69.9201 0 69.9201C1.0262 60.0003 2.02348 53.1369 9.32407 45.9439C10.7096 44.1317 12.0688 42.2992 13.4034 40.4494C31.0653 17.5417 55.8387 5.92516 83.9341 1.68682C111.023 -1.67181 138.456 0.415352 165.37 4.17986ZM115.966 40.9363C115.966 41.8156 115.931 42.0571 115.931 42.9629C121.702 43.1187 127.58 43.0503 133.353 43.1337C135.792 43.2006 135.653 43.1638 138.141 43.232C147.849 43.3371 154.296 43.28 162.505 37.9518C165.487 35.5154 165.487 35.5154 165.585 31.9579C165.379 30.3095 165.379 30.3095 165.169 28.6278C150.039 18.5412 128.641 32.0946 115.966 40.9363Z" sodipodi:nodetypes="cccccccccccccccccccccccccccccccccccccccccccccccccccccccccccccccccccccccccccccccccccccccccccccccccc"/><path id="path5" transform="matrix(2.36220472440926 0 0 2.48275862068946 977.060494526739 927.438441537836)" fill="#484b55" stroke-opacity="0" stroke="#000000" stroke-width="0" stroke-linecap="square" stroke-linejoin="bevel" d="M135.638 0C144.035 6.61043 150.442 14.1937 156.95 22.6441C158.025 24.0314 159.1 25.4188 160.207 26.8482C186.557 61.7833 199.342 104.247 198.243 147.853C195.358 143.526 193.416 139.053 191.416 134.283C191.047 133.412 190.678 132.54 190.297 131.643C189.39 129.5 188.488 127.354 187.586 125.209C187.567 126.271 187.547 127.334 187.528 128.429C186.425 182.925 186.425 182.925 180.926 209.125C180.047 209.125 175.751 198.737 175.401 197.288C174.374 193.535 173.128 190.055 171.602 186.481C170.169 193.642 168.739 200.803 167.315 207.965C166.746 210.822 166.177 213.678 165.608 216.535C165.325 217.962 165.042 219.39 164.75 220.861C164.195 223.645 163.635 226.428 163.069 229.21C162.558 231.724 162.058 234.24 161.571 236.759C161.005 239.555 160.322 242.326 159.614 245.09C158.735 245.529 157.856 245.969 156.95 246.422C156.884 245.602 156.817 244.783 156.748 243.938C156.438 240.214 156.112 236.491 155.785 232.769C155.68 231.479 155.575 230.19 155.467 228.861C155.356 227.616 155.244 226.371 155.129 225.089C155.032 223.945 154.934 222.801 154.833 221.622C154.269 218.347 153.258 215.996 151.622 213.121C151.38 214.394 151.138 215.666 150.889 216.977C145.384 245.29 135.991 271.611 122.318 297.038C121.864 297.9 121.409 298.763 120.941 299.651C111.895 316.766 100.08 335.519 89.3326 351.448C79.4249 351.327 84.6131 351.635 70.9609 351.448C60.0432 351.584 72.3302 351.502 43.9406 351.448C20.7937 351.593 15.0375 351.813 0 351.448C1.79172 339.802 5.10997 328.368 8.63682 317.308C9.23572 315.368 9.6812 314.497 10.292 312.517C22.8939 272.087 43.616 233.316 67.7057 198.469C68.1452 198.469 68.5848 198.469 69.0377 198.469C69.697 209.019 69.697 209.019 70.3697 219.782C78.1732 203.896 84.5659 187.954 90.4285 171.266C91.6826 167.831 93.0448 164.459 94.4395 161.079C96.9758 154.803 98.8807 148.509 100.506 141.942C100.788 140.816 101.07 139.69 101.361 138.53C104.188 126.658 105.413 114.714 106.334 102.565C109.618 105.849 109.93 108.061 110.996 112.555C111.312 113.86 111.628 115.165 111.953 116.509C113.279 122.5 114.476 128.513 115.658 134.533C120.011 111.406 121.998 88.7929 122.318 65.2684C125.719 68.4712 128.292 71.2169 130.206 75.4875C130.61 76.3717 131.013 77.256 131.429 78.1671C132.029 79.5295 132.029 79.5295 132.641 80.9195C133.062 81.8484 133.482 82.7773 133.916 83.7344C134.945 86.0103 135.959 88.2929 136.97 90.5767C141.238 77.2029 141.265 63.9139 141.299 49.9503C141.302 49.0684 141.304 48.1864 141.307 47.2778C141.317 33.317 140.221 20.2523 136.97 6.65996C136.518 4.44156 136.071 2.22224 135.638 0Z" sodipodi:nodetypes="cccccccccccccccccccccccccccccccccccccccccccccccccccccc"/><path id="path6" transform="matrix(2.36220472440926 0 0 2.48275862068946 623.987657578901 228.766836559692)" fill="#b94a19" stroke-opacity="0" stroke="#000000" stroke-width="0" stroke-linecap="square" stroke-linejoin="bevel" d="M184.046 0.353426C179.239 2.88507 174.707 4.06207 169.394 5.26522C156.176 8.38219 143.503 13.0069 130.766 17.6696C131.821 17.5485 132.876 17.4274 133.964 17.3028C185.173 11.5589 231.486 11.4259 279.723 31.1399C274.232 32.1013 273.322 32.1691 267.288 31.6874C255.281 30.7157 244.462 30.6971 232.914 30.8228C230.747 30.8358 228.58 30.8482 226.413 30.8588C221.17 30.8875 216.609 30.7921 211.367 30.848C215.794 32.3653 219.464 33.9391 224.048 34.8913C225.007 35.095 225.966 35.2988 226.954 35.5085C227.959 35.7203 228.965 35.9322 230 36.1505C271.327 45.2351 305.422 58.2023 339.151 83.7746C340.971 85.1371 345.053 88.9162 346.911 90.3062C352.881 95.0968 355.379 100.179 356.621 107.787C355.622 107.191 353.876 105.722 352.847 105.108C348.547 102.568 344.225 100.07 339.891 97.5895C338.825 96.9731 337.758 96.3565 336.66 95.7215C323.2 88.4452 307.218 83.7707 291.939 82.9372C292.538 83.4405 293.137 83.9436 293.754 84.4618C307.79 96.4723 319.27 108.753 329.235 124.23C327.916 124.889 327.916 124.889 326.571 125.562C323.092 123.908 319.771 122.19 316.414 120.317C315.473 119.803 314.532 119.288 313.563 118.759C311.234 117.484 308.911 116.196 306.591 114.906C310.107 119.741 313.624 124.576 317.247 129.558C312.162 129.558 310.968 128.09 307.007 124.979C292.03 113.8 271.936 100.586 253.31 97.5895C254.021 98.3037 254.732 99.0179 255.464 99.7539C269.147 114.147 280.521 131.857 286.611 150.87C286.171 151.749 285.732 152.628 285.279 153.534C284.157 152.789 283.036 152.043 281.881 151.276C242.94 125.912 200.864 107.007 154.742 100.254C156.491 96.7548 157.878 96.6577 161.506 95.3364C162.613 94.9305 163.721 94.5242 164.862 94.1059C166.028 93.6894 167.194 93.2732 168.395 92.8441C170.113 92.2119 170.113 92.2119 171.865 91.5668C177.248 89.6136 182.396 87.9609 188.042 86.9335C178.64 85.823 169.367 85.3581 159.903 85.3516C158.069 85.3272 158.069 85.3272 156.199 85.3025C136.424 85.2617 118.015 89.0801 99.0469 94.1767C97.0224 94.7095 94.9975 95.2411 92.9722 95.7714C82.2844 98.5737 82.2844 98.5737 71.6503 101.571C70.3564 101.949 69.0624 102.326 67.7291 102.715C66.0919 103.212 66.0919 103.212 64.4215 103.719C61.2174 104.302 59.2345 103.943 56.1728 102.918C71.1401 84.0927 90.8527 72.1998 112.117 61.6256C84.6307 64.7053 62.1661 70.6992 37.418 83.0334C34.4024 84.4916 31.3376 85.7605 28.2006 86.9339C36.6897 72.0184 48.0702 60.3156 60.1689 48.3055C38.6487 52.081 19.3184 61.7216 4.22446 77.6097C3.34532 77.6097 2.46623 77.6097 1.56039 77.6097C-0.0335391 72.6283 -0.25882 68.1596 0.22842 62.9577C2.42222 59.8651 4.24342 57.7329 6.97184 55.2153C7.68257 54.5341 8.39351 53.853 9.12584 53.1513C16.701 46.1281 25.0975 40.4804 33.8786 35.0863C35.8931 33.8389 37.8727 32.5358 39.8454 31.2235C60.8949 17.8255 86.4368 9.32719 110.785 4.34922C111.798 4.13501 112.81 3.92082 113.853 3.70012C136.991 -0.980616 160.565 -0.0477886 184.046 0.353189Z" sodipodi:nodetypes="ccccccccccccccccccccccccccccccccccccccccccccccccccccccccccccc"/><path id="path7" transform="matrix(2.36220472440926 0 0 2.48275862068946 1061.64141182888 431.178962810541)" fill="#793214" stroke-opacity="0" stroke="#000000" stroke-width="0" stroke-linecap="square" stroke-linejoin="bevel" d="M105.229 0C128.093 1.08872 151.287 9.71972 169.277 23.855C169.584 21.6522 169.33 21.0992 169.506 18.7646C180.979 29.2959 190.475 43.2195 197.137 57.2765C197.137 58.1555 197.137 59.0346 197.137 59.9404C192.844 57.8433 188.644 55.5817 184.436 53.3191C171.993 46.6467 159.349 40.5246 146.521 34.6322C149.778 38.7811 153.141 42.7044 156.761 46.5371C172.927 64.7132 186.342 89.4376 191.809 113.221C191.305 116.447 191.305 116.447 190.477 118.549C189.863 117.888 189.248 117.227 188.615 116.546C181.851 109.502 174.658 103.918 166.501 98.5687C167.485 102.881 168.825 107.059 170.184 111.266C174.916 125.99 177.639 138.922 177.157 154.513C173.139 150.708 169.957 146.756 166.834 142.192C166.017 141.004 165.199 139.816 164.357 138.591C163.746 137.692 163.135 136.792 162.505 135.865C162.408 138.062 162.408 138.062 162.307 140.303C161.533 156.231 159.918 171.157 152.569 185.605C150.487 183.339 150.181 182.706 147.612 178.991C146.208 177.17 145.706 176.427 144.067 173.602C135.553 160.506 129.204 150.033 119.881 138.529C119.441 143.364 119.002 148.199 118.549 153.181C117.697 152.302 116.165 151.554 115.288 150.649C108.017 143.756 99.5307 137.536 91.6393 131.778C86.1839 125.775 82.5288 122.198 76.6142 115.886C66.1532 100.843 52.703 89.5435 38.0402 78.8434C35.9642 77.2565 35.9642 77.2565 33.3002 74.5925C34.2479 74.7832 35.1958 74.9736 36.1723 75.1702C39.8745 75.9075 43.5774 76.6365 47.2862 77.3398C48.5087 77.575 49.7313 77.8102 50.9909 78.0526C54.4804 78.569 57.7514 78.6842 61.2724 78.5885C59.9468 78.0047 58.6213 77.421 57.2555 76.8195C46.013 71.7584 35.2258 66.1883 24.6421 59.8572C23.5616 59.2154 22.4812 58.5737 21.368 57.9124C13.9075 53.3776 6.41562 48.5812 0 42.6243C0 41.7451 0 40.866 0 39.9602C25.8648 37.2986 45.8306 36.4769 68.4774 51.0638C72.1435 53.4184 75.8744 55.625 79.6395 57.8175C86.0076 61.5418 92.3086 65.3615 98.5686 69.2644C98.5686 49.9652 78.4782 29.4942 66.6004 15.9842C69.2644 14.652 69.2644 14.652 71.6891 15.3129C92.5517 23.8349 112.435 34.4813 130.537 47.9522C127.02 43.1171 123.504 38.2819 119.881 33.3002C125.173 33.3002 128.867 35.5808 133.451 37.9622C134.322 38.4069 135.193 38.8517 136.091 39.3098C138.239 40.4074 140.383 41.515 142.525 42.6243C132.98 28.1995 121.533 16.0819 109.225 3.99593C107.891 2.66553 106.559 1.33397 105.229 0Z" sodipodi:nodetypes="ccccccccccccccccccccccccccccccccccccccccccccccccc"/><path id="path8" transform="matrix(2.36220472440926 0 0 2.48275862068946 627.382275590501 346.05110241529)" fill="#6e2d13" stroke-opacity="0" stroke="#000000" stroke-width="0" stroke-linecap="square" stroke-linejoin="bevel" d="M59.9405 0.988606C58.2741 2.58546 58.2741 2.58546 56.5741 4.21468C40.2301 19.3526 40.2301 19.3526 29.3044 38.2849C30.6608 37.5122 32.0173 36.7396 33.4148 35.9435C54.081 24.4226 86.7166 8.72313 110.974 13.5956C111.715 13.8309 112.457 14.0662 113.221 14.3088C111.741 15.0659 110.261 15.8231 108.736 16.6034C93.9609 24.237 80.7964 32.5298 68.0158 43.1968C67.2745 43.8147 66.5333 44.4326 65.7694 45.0691C61.9588 48.3172 58.8627 51.55 55.9446 55.6011C65.9761 53.9227 75.76 51.74 85.5817 49.1074C86.9184 48.756 88.2553 48.4043 89.6327 48.0421C95.4058 46.5199 101.17 44.9773 106.909 43.332C133.459 35.8269 160.488 35.4048 187.813 38.2849C186.481 40.9489 186.481 40.9489 183.125 42.1406C181.678 42.5439 180.23 42.9474 178.739 43.3632C174.179 44.6352 169.982 45.8903 165.697 47.9177C154.702 53.0832 145.412 53.7736 133.368 53.6863C129.704 53.7207 126.041 53.7922 122.378 53.8788C121.027 53.91 121.027 53.91 119.649 53.9429C102.817 54.4441 86.6604 58.177 70.6798 63.2601C52.7694 68.9094 35.549 67.5279 18.747 58.9363C9.59995 53.6282 5.40267 50.4408 2.41439 40.0331C1.95595 38.4623 1.49749 36.8911 1.02508 35.2724C0.68695 34.0687 0.34857 32.865 0 31.625C13.608 17.6048 28.3348 9.30124 46.6203 2.32069C48.668 1.52743 48.668 1.52743 50.757 0.718136C54.7431 -0.379304 56.1284 -0.163494 59.9405 0.988636Z" sodipodi:nodetypes="ccccccccccccccccccccccccccccc"/><path id="path9" transform="matrix(2.36220472440926 0 0 2.48275862068946 444.886417322799 832.282044718692)" fill="#d2552f" stroke-opacity="0" stroke="#000000" stroke-width="0" stroke-linecap="square" stroke-linejoin="bevel" d="M44.4607 0C56.2493 11.7887 56.4006 12.8432 57.1673 18.7296C57.0149 23.4968 57.0943 28.2282 56.8556 32.9919C56.8895 34.0049 56.6607 35.0283 56.696 36.0721C56.6281 44.2802 50.4423 49.3287 45.33 55.1367C42.6036 57.9887 43.2856 57.2919 41.9743 60.1947C42.6084 59.7733 47.7871 56.0247 48.4406 55.5905C77.9001 36.1512 103.321 22.0624 139.803 28.8329C143.768 29.744 148.661 31.3405 152.551 32.533C148.157 37.4157 141.799 41.7191 136.171 44.9933C135.185 45.5678 116.342 56.6487 115.326 57.2404C79.6977 77.5872 42.3043 96.8557 0 96.8557C2.08281 90.1707 3.92501 84.7606 8.32267 79.4633C9.0895 78.5302 11.2012 76.3654 11.9915 75.404C21.0588 64.4694 30.6676 55.6429 40.7643 45.6491C44.4666 42.3417 44.9126 42.0389 46.2885 38.936C46.2004 37.2038 46.1941 37.9783 46.1332 35.627C45.6446 22.9386 43.9564 14.0846 43.9564 0.951068Z" sodipodi:nodetypes="ccccccccccccccccccc"/><path id="path10" transform="matrix(2.36220472440926 0 0 2.48275862068946 857.075503936939 510.152554149472)" fill="#f3ede6" stroke-opacity="0" stroke="#000000" stroke-width="0" stroke-linecap="square" stroke-linejoin="bevel" d="M22.6441 0.160718C36.2306 -0.524952 47.1561 0.675907 57.547 9.85949C64.0709 15.6253 67.7133 20.9732 67.6593 29.7876C67.5955 40.2122 63.8462 47.4262 56.1368 54.3058C46.8606 62.5835 39.1437 64.7909 31.8048 64.9623C19.3937 65.2522 16.3677 64.0121 9.33043 60.7312C1.07649 56.8829 0.52723 50.2588 0 49.4451C6.32703 51.9426 6.80117 51.8439 9.96035 52.7858C17.7923 55.1208 24.3399 53.5888 29.893 48.2936C38.6178 39.9739 40.3841 26.0827 38.0453 18.7028C35.7717 11.5285 22.6441 1.06644 22.6441 0.160718Z" sodipodi:nodetypes="cssssscsssc"/><path id="path11" transform="matrix(2.36220472440926 0 0 2.48275862068946 334.759842519658 946.920614835331)" fill="#a5a5a8" stroke-opacity="0" stroke="#000000" stroke-width="0" stroke-linecap="square" stroke-linejoin="bevel" d="M209.764 0C210.282 1.55522 209.19 2.32974 207.703 4.05304C182.432 28.4842 145.67 41.2842 113.279 53.1716C108.912 54.7941 104.574 56.4817 100.234 58.1744C70.5544 69.6062 31.6907 80.907 0 73.326C0 72.8865 0 72.4469 0 71.994C2.19786 71.994 4.39569 71.994 6.66014 71.994C6.66014 70.2358 6.66014 68.4776 6.66014 66.666C8.28958 66.6164 9.919 66.5668 11.5978 66.5151C73.0015 64.2712 126.701 39.3554 181.476 13.604C182.992 12.8954 184.507 12.1868 186.069 11.4565C188.989 10.0872 191.904 8.70592 194.813 7.31231C196.793 6.37789 196.793 6.37789 198.813 5.4248C199.972 4.87091 201.103 4.28988 202.298 3.71926C203.686 3.21595 208.032 0.570878 209.764 0Z" sodipodi:nodetypes="ccccccccccccccc"/><path id="path12" transform="matrix(2.36220472440926 0 0 2.48275862068946 145.804626388583 344.448325100953)" fill="#acabae" stroke-opacity="0" stroke="#000000" stroke-width="0" stroke-linecap="square" stroke-linejoin="bevel" d="M89.3932 0.0554391C92.1112 0.0524391 94.8286 0.0286391 97.5467 0.00353905C125.976 -0.120891 140.804 3.05868 152.174 5.93144C147.945 6.16697 130.049 7.88279 126.74 7.93065C124.932 7.96425 116.912 7.38484 115.456 7.41154C77.1006 8.19426 44.4884 12.8113 15.7216 40.4397C10.6664 45.7102 4.28099 53.4493 0 59.519C1.4646 49.6141 23.5976 17.3568 42.6947 8.2945C58.3984 2.20404 72.5665 0.0537491 89.3932 0.0557191Z" sodipodi:nodetypes="cccccccccc"/><path id="path13" transform="matrix(2.36220472440926 0 0 2.48275862068946 410.275559055085 422.694984085025)" fill="#1f1b1c" stroke-opacity="0" stroke="#000000" stroke-width="0" stroke-linecap="square" stroke-linejoin="bevel" d="M37.4987 0.0728038C38.8877 0.0541038 40.2608 0.136972 41.692 0.117372C45.3914 0.424392 45.3368 0.726434 49.3328 3.39044C49.999 6.55381 50.1739 6.81566 49.5078 10.3122C44.4561 15.3641 39.0412 17.8412 31.9067 18.373C30.435 18.3593 28.963 18.3454 27.4465 18.3307C25.8454 18.3227 24.2443 18.3137 22.5948 18.3049C20.9352 18.2825 19.2756 18.2603 17.5659 18.2373C15.0378 18.2196 15.0378 18.2196 12.4589 18.2011C8.30564 18.17 4.15293 18.1264 0 18.0708C0 17.1919 0 16.3126 0 15.4068C3.87926 13.2042 7.53338 10.317 11.4221 8.13111C12.5209 7.50704 13.5749 6.95479 14.7072 6.31187C15.7717 5.71511 16.9052 5.28775 18.0019 4.67299C18.9785 4.12204 20.0206 3.6825 21.0268 3.11459C26.4201 0.47388 30.5224 0.03698 36.4878 0Z" sodipodi:nodetypes="ccccccccccccccccc"/><path id="path14" transform="matrix(2.36220472440926 0 0 2.48275862068946 841.343173228279 808.186866206832)" fill="#cf5631" stroke-opacity="0" stroke="#000000" stroke-width="0" stroke-linecap="square" stroke-linejoin="bevel" d="M3.99606 0C9.68619 2.03604 14.6432 4.94857 19.7304 8.15851C20.5262 8.65485 21.322 9.15097 22.142 9.66228C24.0884 10.8768 26.0307 12.0978 27.9722 13.3201C25.9948 20.396 21.3399 24.4957 16.2339 29.4707C15.4123 30.2967 14.5906 31.1225 13.7441 31.9735C9.44609 36.2213 5.40876 39.8015 0 42.6244C0.26527 41.3571 0.26527 41.3571 0.53591 40.0643C3.04941 26.7815 3.48963 13.4836 3.99606 0Z" sodipodi:nodetypes="ccccccccc"/><path id="path16" transform="matrix(2.36220472440926 0 0 2.48275862068946 853.889947748471 537.63825443069)" fill="#f3eee7" stroke-opacity="0" stroke="#000000" stroke-width="0" stroke-linecap="square" stroke-linejoin="bevel" d="M13.3091 0.672986C15.7369 1.71197 17.1066 3.21532 18.2251 6.3149C19.1563 8.89531 19.2235 11.6768 17.6024 13.954C16.3968 15.6474 12.0907 18.575 7.05154 17.2461C3.29836 16.2564 1.73232 14.3199 0.73698 11.8777C-0.582903 8.63916 -0.244827 5.7419 2.69183 2.80524C5.62856 -0.131501 10.2974 -0.615853 13.3091 0.672986Z" sodipodi:nodetypes="cssssss"/><path id="path17" transform="matrix(2.36220472440926 0 0 2.48275862068946 278.123102362182 1092.59374344819)" fill="#ababaf" stroke-opacity="0" stroke="#000000" stroke-width="0" stroke-linecap="square" stroke-linejoin="bevel" d="M0 0C1.30071 0.57434 1.30071 0.57434 2.62775 1.16035C7.64414 3.03098 12.6796 4.24666 17.899 5.41138C19.471 5.76361 19.471 5.76361 21.0748 6.12289C30.4646 8.13019 39.679 9.01523 49.2844 9.32412C49.2844 9.76366 49.2907 9.60873 49.3145 10.6321C46.1681 12.1206 46.471 12.3359 41.576 13.2488C33.994 14.2807 40.2646 13.3841 31.578 14.5942C21.2892 15.7813 12.6027 10.8873 3.99612 5.32813C1.52465 2.39349 1.52465 2.39349 0 0Z" sodipodi:nodetypes="cccccccccc"/><path id="path18" transform="matrix(2.36220472440926 0 0 2.48275862068946 438.184657084173 356.661981377881)" fill="#97969b" stroke-opacity="0" stroke="#000000" stroke-width="0" stroke-linecap="square" stroke-linejoin="bevel" d="M38.2029 3.16452C39.7252 3.53974 56.0485 6.39977 57.9065 8.77764C47.3604 7.90047 20.3306 4.96923 18.5009 4.75745C14.614 4.30656 3.88662 3.30625 0 2.85343C15.0108 -2.19027 27.4498 0.449474 38.2029 3.16452Z" sodipodi:nodetypes="ccccc"/>
</svg>
